<svg width="133" height="40" viewBox="0 0 133 40" fill="none" xmlns="http://www.w3.org/2000/svg">
<path d="M113 0L115.361 12.7346L124.756 3.81966L119.18 15.5097L132.021 13.8197L120.639 20L132.021 26.1803L119.18 24.4903L124.756 36.1803L115.361 27.2654L113 40L110.639 27.2654L101.244 36.1803L106.82 24.4903L93.9789 26.1803L105.361 20L93.9789 13.8197L106.82 15.5097L101.244 3.81966L110.639 12.7346L113 0Z" fill="white"/>
<path d="M8.96625 28.24C9.97958 28.24 10.8863 28.06 11.6863 27.7C12.4996 27.34 13.1796 26.88 13.7263 26.32C14.2863 25.7467 14.6863 25.1533 14.9263 24.54L13.4263 23.88C13.0529 24.7467 12.4796 25.44 11.7062 25.96C10.9463 26.48 10.0329 26.74 8.96625 26.74C7.87292 26.74 6.89958 26.4867 6.04625 25.98C5.19292 25.46 4.52625 24.7333 4.04625 23.8C3.56625 22.8667 3.32625 21.7867 3.32625 20.56C3.32625 19.32 3.56625 18.24 4.04625 17.32C4.52625 16.3867 5.19292 15.66 6.04625 15.14C6.89958 14.62 7.87292 14.36 8.96625 14.36C10.0329 14.36 10.9463 14.6267 11.7062 15.16C12.4796 15.68 13.0529 16.3733 13.4263 17.24L14.9263 16.58C14.6863 15.9533 14.2863 15.36 13.7263 14.8C13.1796 14.2267 12.4996 13.76 11.6863 13.4C10.8863 13.04 9.97958 12.86 8.96625 12.86C7.91292 12.86 6.94625 13.0533 6.06625 13.44C5.18625 13.8133 4.41958 14.3467 3.76625 15.04C3.12625 15.7333 2.62625 16.5467 2.26625 17.48C1.90625 18.4133 1.72625 19.44 1.72625 20.56C1.72625 21.68 1.90625 22.7067 2.26625 23.64C2.62625 24.5733 3.12625 25.3867 3.76625 26.08C4.41958 26.76 5.18625 27.2933 6.06625 27.68C6.94625 28.0533 7.91292 28.24 8.96625 28.24ZM18.7913 28H26.9913V26.5H20.3913V13.1H18.7913V28ZM37.0456 28.24C38.0856 28.24 39.0523 28.0533 39.9456 27.68C40.8523 27.2933 41.6456 26.76 42.3256 26.08C43.0056 25.3867 43.539 24.5733 43.9256 23.64C44.3123 22.6933 44.5056 21.66 44.5056 20.54C44.5056 19.42 44.3123 18.3933 43.9256 17.46C43.539 16.5267 43.0056 15.72 42.3256 15.04C41.6456 14.3467 40.8523 13.8133 39.9456 13.44C39.0523 13.0533 38.0856 12.86 37.0456 12.86C36.0056 12.86 35.0323 13.0467 34.1256 13.42C33.2323 13.7933 32.4456 14.3267 31.7656 15.02C31.0856 15.7 30.5523 16.5133 30.1656 17.46C29.779 18.3933 29.5856 19.42 29.5856 20.54C29.5856 21.66 29.779 22.6933 30.1656 23.64C30.5523 24.5733 31.0856 25.3867 31.7656 26.08C32.4456 26.76 33.2323 27.2933 34.1256 27.68C35.0323 28.0533 36.0056 28.24 37.0456 28.24ZM37.0456 26.74C35.899 26.74 34.8856 26.46 34.0056 25.9C33.1256 25.34 32.4323 24.5933 31.9256 23.66C31.4323 22.7133 31.1856 21.6733 31.1856 20.54C31.1856 19.7 31.3256 18.9067 31.6056 18.16C31.899 17.4133 32.3056 16.7533 32.8256 16.18C33.3456 15.6067 33.959 15.16 34.6656 14.84C35.3856 14.52 36.179 14.36 37.0456 14.36C37.9123 14.36 38.699 14.52 39.4056 14.84C40.1256 15.16 40.7456 15.6067 41.2656 16.18C41.7856 16.7533 42.1856 17.4133 42.4656 18.16C42.759 18.9067 42.9056 19.7 42.9056 20.54C42.9056 21.6733 42.6523 22.7133 42.1456 23.66C41.6523 24.5933 40.9656 25.34 40.0856 25.9C39.2056 26.46 38.1923 26.74 37.0456 26.74ZM53.6042 28.24C54.5509 28.24 55.3842 28.0667 56.1042 27.72C56.8376 27.3733 57.4042 26.9 57.8042 26.3C58.2176 25.6867 58.4242 24.98 58.4242 24.18C58.4242 23.1933 58.1242 22.3733 57.5242 21.72C56.9242 21.0667 56.0376 20.5667 54.8642 20.22L52.5042 19.52C51.7042 19.28 51.1109 18.92 50.7242 18.44C50.3376 17.9467 50.1442 17.3933 50.1442 16.78C50.1442 16.02 50.4109 15.42 50.9442 14.98C51.4776 14.5267 52.1709 14.3 53.0242 14.3C53.9309 14.3 54.7176 14.5267 55.3842 14.98C56.0642 15.4333 56.5642 16.1 56.8842 16.98L58.2842 16.42C58.0709 15.7667 57.7176 15.1733 57.2242 14.64C56.7309 14.1067 56.1242 13.68 55.4042 13.36C54.6976 13.0267 53.8976 12.86 53.0042 12.86C52.1509 12.86 51.3842 13.0333 50.7042 13.38C50.0376 13.7267 49.5109 14.2067 49.1242 14.82C48.7376 15.42 48.5442 16.1133 48.5442 16.9C48.5442 17.82 48.8242 18.64 49.3842 19.36C49.9576 20.08 50.7709 20.5933 51.8242 20.9L54.5042 21.7C55.2509 21.9133 55.8242 22.22 56.2242 22.62C56.6242 23.02 56.8242 23.5867 56.8242 24.32C56.8242 25.0667 56.5242 25.6667 55.9242 26.12C55.3376 26.5733 54.5642 26.8 53.6042 26.8C52.5909 26.8 51.7176 26.54 50.9842 26.02C50.2509 25.4867 49.7109 24.7133 49.3642 23.7L47.9242 24.24C48.1509 24.9733 48.5309 25.6467 49.0642 26.26C49.5976 26.86 50.2509 27.34 51.0242 27.7C51.7976 28.06 52.6576 28.24 53.6042 28.24ZM62.5139 28H72.1139V26.5H64.1139V21.28H71.7139V19.78H64.1139V14.6H72.1139V13.1H62.5139V28Z" fill="white"/>
</svg>
