<svg width="30" height="24" viewBox="0 0 30 24" fill="none" xmlns="http://www.w3.org/2000/svg">
<g clip-path="url(#clip0_49_71)">
<path d="M25.3963 2.06947C23.4842 1.19211 21.4337 0.54572 19.2899 0.175503C19.2508 0.168358 19.2118 0.186214 19.1917 0.221927C18.928 0.690946 18.6359 1.30282 18.4314 1.78375C16.1255 1.43854 13.8315 1.43854 11.5729 1.78375C11.3683 1.29213 11.0656 0.690946 10.8007 0.221927C10.7806 0.187406 10.7416 0.16955 10.7026 0.175503C8.55989 0.544537 6.50945 1.19093 4.59617 2.06947C4.57961 2.07661 4.56541 2.08852 4.55599 2.10399C0.66674 7.91444 -0.398688 13.5821 0.123975 19.1794C0.12634 19.2068 0.141712 19.233 0.162998 19.2497C2.72901 21.1341 5.21463 22.2781 7.6541 23.0364C7.69314 23.0483 7.73451 23.034 7.75935 23.0019C8.33641 22.2138 8.8508 21.3829 9.29185 20.5091C9.31787 20.4579 9.29303 20.3972 9.23983 20.377C8.42391 20.0675 7.647 19.6901 6.89966 19.2616C6.84055 19.2271 6.83582 19.1425 6.8902 19.102C7.04747 18.9842 7.20477 18.8616 7.35494 18.7378C7.38211 18.7152 7.41997 18.7104 7.45192 18.7247C12.3616 20.9663 17.6769 20.9663 22.5287 18.7247C22.5606 18.7092 22.5985 18.714 22.6268 18.7366C22.7771 18.8604 22.9343 18.9842 23.0928 19.102C23.1472 19.1425 23.1436 19.2271 23.0845 19.2616C22.3372 19.6984 21.5602 20.0675 20.7431 20.3758C20.6899 20.396 20.6663 20.4579 20.6923 20.5091C21.1428 21.3817 21.6572 22.2126 22.2236 23.0007C22.2473 23.034 22.2898 23.0483 22.3289 23.0364C24.7802 22.2781 27.2658 21.1341 29.8318 19.2497C29.8543 19.233 29.8685 19.208 29.8708 19.1806C30.4964 12.7095 28.8231 7.0883 25.4353 2.10517C25.427 2.08852 25.4128 2.07661 25.3963 2.06947ZM10.025 15.7712C8.54687 15.7712 7.32892 14.4142 7.32892 12.7476C7.32892 11.081 8.52325 9.7239 10.025 9.7239C11.5386 9.7239 12.7448 11.0929 12.7211 12.7476C12.7211 14.4142 11.5268 15.7712 10.025 15.7712ZM19.9934 15.7712C18.5153 15.7712 17.2974 14.4142 17.2974 12.7476C17.2974 11.081 18.4917 9.7239 19.9934 9.7239C21.507 9.7239 22.7132 11.0929 22.6896 12.7476C22.6896 14.4142 21.507 15.7712 19.9934 15.7712Z" fill="white"/>
</g>
<defs>
<clipPath id="clip0_49_71">
<rect width="30" height="23.2394" fill="white"/>
</clipPath>
</defs>
</svg>
