<svg width="40" height="45" viewBox="0 0 40 45" fill="none" xmlns="http://www.w3.org/2000/svg">
<path d="M37.5764 13.6059L36.3026 14.8934C38.9749 18.4546 40.2711 22.8606 39.9527 27.3013C39.6343 31.7422 37.7228 35.918 34.5701 39.0619C31.4171 42.2053 27.2351 44.104 22.7931 44.4094C22.3715 44.4368 21.9531 44.4506 21.5375 44.4506C18.9519 44.456 16.3941 43.9168 14.0309 42.8673C11.6674 41.818 9.55203 40.2823 7.82239 38.3603C7.41612 37.8888 7.46023 37.1792 7.92244 36.7621C8.38433 36.3449 9.09458 36.3731 9.52231 36.825C12.3688 39.9762 16.3392 41.8822 20.5784 42.1328C24.8169 42.3834 28.9848 40.9581 32.1819 38.1644C35.3793 35.3706 37.3513 31.4325 37.6719 27.1983C37.9928 22.9642 36.6369 18.7739 33.8965 15.5301C33.5097 15.075 33.5375 14.3986 33.9607 13.9767L35.9585 11.9789H35.9589C36.2485 11.6583 36.2363 11.1666 35.9307 10.8614C35.6251 10.5558 35.1335 10.5434 34.8133 10.8333L32.7375 12.9091H32.7371C32.3337 13.3125 31.6948 13.3575 31.2389 13.0145C28.9397 11.2901 26.2217 10.2112 23.366 9.88904C22.7855 9.82607 22.3453 9.33669 22.3441 8.75267V5.0591C22.3393 4.75224 22.4579 4.45624 22.6733 4.23728C22.8884 4.01832 23.1828 3.89525 23.4897 3.89525H24.5391C24.9872 3.89525 25.3503 3.53213 25.3503 3.0843C25.3503 2.63615 24.9872 2.27303 24.5391 2.27303H18.5268C18.0789 2.27303 17.7158 2.63615 17.7158 3.0843C17.7158 3.53213 18.0789 3.89525 18.5268 3.89525H19.5762C19.8801 3.89525 20.1717 4.01608 20.3865 4.23089C20.6013 4.44569 20.7218 4.73689 20.7218 5.04088V8.75261C20.7208 9.33501 20.2832 9.82377 19.7046 9.88899C16.0012 10.3132 12.5569 12.0012 9.95293 14.6687C9.50862 15.1216 8.78145 15.129 8.32844 14.6847C7.87517 14.2407 7.86814 13.5132 8.31246 13.0602C11.0419 10.2709 14.5833 8.415 18.4299 7.75815V6.18644C17.3815 6.09086 16.4529 5.47011 15.9641 4.53773C15.4751 3.60503 15.4923 2.48813 16.0102 1.57138C16.528 0.654641 17.4751 0.0629274 18.5261 0H24.5384C25.5895 0.0629708 26.5369 0.654641 27.0547 1.57138C27.5725 2.48813 27.5898 3.60503 27.1007 4.53773C26.612 5.47018 25.6834 6.09086 24.6346 6.18644V7.73991C27.196 8.17335 29.6368 9.14313 31.7973 10.5857L33.1721 9.21089H33.1718C33.9553 8.42647 35.0977 8.11993 36.1685 8.40633C37.2393 8.69242 38.0759 9.5283 38.3632 10.5988C38.6509 11.6696 38.3453 12.8121 37.5618 13.5962L37.5764 13.6059ZM0 20.1037C0 20.4077 0.12083 20.6992 0.335635 20.914C0.550439 21.1288 0.84164 21.2493 1.14562 21.2493H9.10074C9.73365 21.2493 10.2464 20.7366 10.2464 20.1037C10.2464 19.4711 9.73365 18.9581 9.10074 18.9581H1.15012C0.519458 18.9581 0.00703742 19.4682 0.00450068 20.0992L0 20.1037ZM13.0233 25.6579C13.0233 25.3539 12.9024 25.0627 12.6876 24.8476C12.4728 24.6328 12.1813 24.5123 11.8776 24.5123H3.92703C3.29444 24.5123 2.78141 25.025 2.78141 25.6579C2.78141 26.2905 3.29444 26.8035 3.92703 26.8035H11.8776C12.1813 26.8035 12.4728 26.6827 12.6876 26.4679C12.9024 26.2531 13.0233 25.9616 13.0233 25.6579ZM1.14971 32.3619H9.10033C9.73324 32.3619 10.246 31.8492 10.246 31.2163C10.246 30.5837 9.73324 30.0707 9.10033 30.0707H1.14971C0.517126 30.0707 0.00409176 30.5837 0.00409176 31.2163C0.00409176 31.8492 0.517126 32.3619 1.14971 32.3619ZM27.8885 21.2355L24.9512 24.1728V24.1731C25.5314 25.2752 25.5461 26.5893 24.9906 27.7042C24.435 28.8188 23.377 29.5984 22.1476 29.7989C20.9183 29.9993 19.6674 29.5959 18.7869 28.7153C17.9059 27.8343 17.5029 26.5836 17.7033 25.3542C17.9034 24.1249 18.683 23.0668 19.7979 22.5113C20.9129 21.9557 22.227 21.9704 23.3291 22.5509L26.2664 19.6136V19.6133C26.7142 19.1655 27.4408 19.1655 27.8886 19.6133C28.3364 20.0614 28.3364 20.7877 27.8886 21.2355L27.8885 21.2355ZM23.1043 25.9739C23.1043 25.5571 22.9388 25.1572 22.644 24.8625C22.3493 24.5678 21.9494 24.4022 21.5326 24.4022C21.1158 24.4022 20.7159 24.5678 20.4212 24.8625C20.1265 25.1572 19.9609 25.5571 19.9609 25.9739C19.9609 26.3907 20.1265 26.7906 20.4212 27.0853C20.7159 27.3801 21.1158 27.5456 21.5326 27.5456C21.9491 27.5444 22.348 27.3785 22.6427 27.0841C22.9371 26.7893 23.103 26.3904 23.1043 25.974L23.1043 25.9739ZM21.5326 39.6068C24.536 39.6116 27.457 38.6249 29.8425 36.7996C32.2274 34.9741 33.9432 32.4125 34.7235 29.5123C35.5037 26.6118 35.3049 23.5351 34.1574 20.7597C33.0101 17.9839 30.9784 15.6648 28.3781 14.1618C25.7775 12.6592 22.7539 12.0569 19.7761 12.4485C16.7983 12.84 14.033 14.2036 11.9096 16.328C11.4617 16.7759 11.4617 17.5021 11.9096 17.9502C12.3577 18.3981 13.084 18.3981 13.5318 17.9502C15.6593 15.8188 18.5471 14.6205 21.5585 14.6185C24.5699 14.6169 27.4588 15.8121 29.589 17.941C31.7193 20.0699 32.9159 22.9579 32.9159 25.9696C32.9159 28.981 31.7192 31.869 29.589 33.9979C27.4589 36.1267 24.5699 37.3219 21.5585 37.3203C18.5471 37.3184 15.6593 36.12 13.5318 33.9889C13.0839 33.5408 12.3577 33.5408 11.9096 33.9889C11.4617 34.4368 11.4617 35.163 11.9096 35.6108C13.1722 36.877 14.6723 37.8813 16.3233 38.5669C17.9746 39.2526 19.7448 39.6061 21.533 39.6067L21.5326 39.6068Z" fill="url(#paint0_linear_38_94)"/>
<defs>
<linearGradient id="paint0_linear_38_94" x1="5.58823" y1="36.8977" x2="31.4527" y2="28.123" gradientUnits="userSpaceOnUse">
<stop stop-color="#4050B8"/>
<stop offset="0.988281" stop-color="#C04FB6"/>
</linearGradient>
</defs>
</svg>
