<svg width="40" height="40" viewBox="0 0 40 40" fill="none" xmlns="http://www.w3.org/2000/svg">
<path d="M1.3971 39.805C1.04588 39.8036 0.709436 39.6625 0.462243 39.4133C0.214792 39.1638 0.0767216 38.8265 0.078205 38.475C0.0796832 38.1237 0.220408 37.7876 0.469932 37.5401L18.2444 19.9382L0.469932 2.33624C0.187887 2.09795 0.018187 1.75323 0.00133967 1.38458C-0.0152163 1.01621 0.122261 0.657297 0.381533 0.394475C0.640518 0.131645 0.997355 -0.0111488 1.36604 0.000680711C1.735 0.0122105 2.08208 0.176882 2.3242 0.455378L21.0523 18.9981C21.303 19.2467 21.4441 19.5852 21.4441 19.9385C21.4441 20.2918 21.303 20.6303 21.0523 20.879L2.3242 39.4217C2.07734 39.6662 1.74444 39.8042 1.39707 39.8057L1.3971 39.805Z" fill="url(#paint0_linear_38_152)"/>
<path d="M19.9398 39.805C19.5886 39.8035 19.2521 39.6625 19.0049 39.4133C18.7575 39.1637 18.6194 38.8264 18.6209 38.4749C18.6224 38.1237 18.7631 37.7876 19.0126 37.5401L36.7871 19.9381L19.0126 2.33621C18.7631 2.08846 18.6224 1.75201 18.6212 1.40052C18.62 1.04903 18.7584 0.711375 19.0058 0.462184C19.2536 0.21266 19.5903 0.0719397 19.9415 0.0707514C20.293 0.0692732 20.6306 0.207929 20.8801 0.45538L39.6083 18.9981C39.859 19.2467 40 19.5852 40 19.9385C40 20.2918 39.859 20.6303 39.6083 20.879L20.8801 39.4217C20.63 39.6694 20.2918 39.8078 19.9397 39.8057L19.9398 39.805Z" fill="url(#paint1_linear_38_152)"/>
<defs>
<linearGradient id="paint0_linear_38_152" x1="2.99586" y1="33.0421" x2="17.8452" y2="30.0261" gradientUnits="userSpaceOnUse">
<stop stop-color="#4050B8"/>
<stop offset="0.988281" stop-color="#C04FB6"/>
</linearGradient>
<linearGradient id="paint1_linear_38_152" x1="21.6077" y1="33.0541" x2="36.4135" y2="30.0508" gradientUnits="userSpaceOnUse">
<stop stop-color="#4050B8"/>
<stop offset="0.988281" stop-color="#C04FB6"/>
</linearGradient>
</defs>
</svg>
