<svg width="58" height="30" viewBox="0 0 58 30" fill="none" xmlns="http://www.w3.org/2000/svg">
<path d="M44.3091 4.63383C44.3079 4.63343 44.3075 4.63221 44.3063 4.63139C44.2969 4.62449 44.2876 4.62042 44.2782 4.61392C39.7919 1.69963 34.453 0 28.7227 0C12.8853 0 0 12.9362 0 28.8351C0 29.4783 0.522141 30 1.16495 30H56.2792C56.9224 30 57.4442 29.4779 57.4442 28.8351C57.4454 18.701 52.2061 9.77708 44.3082 4.6342L44.3091 4.63383ZM13.6506 7.09625L15.2267 9.15683C15.4563 9.45671 15.8021 9.61396 16.1527 9.61396C16.3998 9.61396 16.6485 9.53595 16.8598 9.37382C17.3705 8.98292 17.4681 8.25193 17.0772 7.74035L15.6232 5.84027C19.1698 3.79436 23.2286 2.55014 27.5577 2.35958L27.5581 4.80577C27.5581 5.449 28.0803 5.97072 28.7231 5.97072C29.3663 5.97072 29.888 5.44858 29.888 4.80577V2.35958C34.2436 2.55055 38.3241 3.80903 41.886 5.87679L40.4606 7.74025C40.0697 8.25102 40.1668 8.98279 40.6784 9.37371C40.8893 9.53503 41.138 9.61386 41.3854 9.61386C41.7357 9.61386 42.0815 9.45661 42.3115 9.15673L43.8547 7.13921C46.55 9.04127 48.8783 11.4325 50.7051 14.1888L48.569 15.5501C48.0266 15.8963 47.8673 16.6159 48.2131 17.1592C48.4349 17.5074 48.8112 17.698 49.1964 17.698C49.4102 17.698 49.6267 17.6387 49.8214 17.5155L51.9091 16.1856C53.7779 19.6261 54.9062 23.5273 55.085 27.6707L35.0898 27.6712C34.9586 26.9568 34.7135 26.2843 34.3694 25.6719L41.028 13.7125C41.039 13.6926 41.0443 13.6722 41.0545 13.6519C41.0732 13.6129 41.091 13.5739 41.1057 13.5337C41.1179 13.4991 41.1268 13.465 41.1361 13.4301C41.1455 13.3927 41.154 13.3553 41.1601 13.3175C41.1654 13.2797 41.1682 13.2423 41.1707 13.2046C41.1723 13.168 41.1735 13.1318 41.1719 13.0948C41.1703 13.0575 41.1662 13.0209 41.1601 12.9835C41.1548 12.9461 41.1483 12.9096 41.1398 12.8722C41.1309 12.8368 41.1207 12.8027 41.1089 12.769C41.0959 12.7324 41.0825 12.6962 41.0662 12.6605C41.0512 12.6267 41.0325 12.5946 41.0138 12.5625C40.9951 12.53 40.976 12.4983 40.9533 12.4671C40.9293 12.4337 40.9033 12.4037 40.8757 12.3728C40.8598 12.3553 40.8476 12.3354 40.831 12.3187C40.8212 12.309 40.8098 12.3025 40.7997 12.2935C40.7717 12.2679 40.7408 12.2448 40.7107 12.2212C40.677 12.1956 40.6432 12.1704 40.6071 12.1489C40.5965 12.1424 40.5884 12.1343 40.5774 12.1278C40.5587 12.1172 40.5388 12.1119 40.5193 12.1026C40.4791 12.0827 40.4385 12.064 40.3958 12.0497C40.3645 12.0388 40.3336 12.0306 40.3019 12.0225C40.2605 12.0115 40.219 12.0022 40.1772 11.9961C40.1439 11.9916 40.1118 11.9892 40.0788 11.9868C40.0362 11.9843 39.9939 11.9831 39.9517 11.9855C39.9204 11.9872 39.8899 11.9908 39.8586 11.9949C39.8147 12.0006 39.7725 12.0079 39.7286 12.0189C39.6993 12.0266 39.6717 12.0351 39.6428 12.0445C39.601 12.0583 39.5595 12.0741 39.5193 12.0928C39.4897 12.1062 39.4616 12.1221 39.4344 12.1383C39.3978 12.1586 39.3633 12.1802 39.3292 12.2046C39.2979 12.2273 39.2686 12.2525 39.2402 12.2781C39.2223 12.2944 39.2016 12.3074 39.1837 12.3248L29.2105 22.3817C29.0492 22.3695 28.8871 22.3574 28.7229 22.3574C25.5494 22.3574 22.907 24.6523 22.3564 27.6694H2.36017C2.54018 23.5085 3.67793 19.5934 5.56011 16.1426L7.71327 17.5141C7.9071 17.638 8.12408 17.6965 8.33822 17.6965C8.72342 17.6965 9.0997 17.5059 9.32156 17.1577C9.66775 16.6148 9.50807 15.8948 8.96519 15.5486L6.76605 14.1475C8.60226 11.3881 10.9424 8.99474 13.6507 7.09592L13.6506 7.09625ZM32.7574 23.7763C32.4474 23.528 32.115 23.3061 31.7619 23.118L34.8679 19.9852L32.7574 23.7763ZM32.7005 27.6698H24.7452C25.2503 25.949 26.8407 24.6877 28.7228 24.6877C30.6049 24.6877 32.1958 25.949 32.7004 27.6698H32.7005Z" fill="url(#paint0_linear_38_141)"/>
<defs>
<linearGradient id="paint0_linear_38_141" x1="8.02529" y1="24.9025" x2="35.2544" y2="5.24587" gradientUnits="userSpaceOnUse">
<stop stop-color="#4050B8"/>
<stop offset="0.988281" stop-color="#C04FB6"/>
</linearGradient>
</defs>
</svg>
