<svg width="40" height="43" viewBox="0 0 40 43" fill="none" xmlns="http://www.w3.org/2000/svg">
<path d="M38.9332 5.44441L20.4147 0.0667989C20.2804 0.0248019 20.1409 0.0023145 20 0C19.8621 0.00165342 19.7252 0.0214952 19.5926 0.0591934L1.07407 5.44442C0.764885 5.53272 0.493053 5.71955 0.299276 5.97583C0.105489 6.23244 0.000338624 6.54528 0 6.86667V23.0368C0 37.1109 18.8368 41.9778 19.6444 42.1776C19.7605 42.2067 19.8799 42.2216 19.9999 42.2219C20.1302 42.2239 20.2599 42.2063 20.3852 42.17C21.5406 41.8813 40 36.9775 40 23.0368V6.86668C40 6.54591 39.8962 6.23407 39.7037 5.97779C39.5112 5.72118 39.2411 5.53401 38.9332 5.44439V5.44441ZM21.4813 28.1483V29.6298C21.4813 30.1592 21.1989 30.6483 20.7406 30.9129C20.2823 31.1774 19.7175 31.1774 19.2591 30.9129C18.8008 30.6483 18.5184 30.1592 18.5184 29.6298V28.1483H17.0369C16.5075 28.1483 16.0184 27.8659 15.7539 27.4076C15.4893 26.9492 15.4893 26.3844 15.7539 25.9261C16.0184 25.4678 16.5075 25.1854 17.0369 25.1854H21.4813C22.0108 25.1854 22.4998 24.903 22.7644 24.4446C23.0289 23.9863 23.0289 23.4215 22.7644 22.9631C22.4998 22.5048 22.0108 22.2224 21.4813 22.2224H19.2591C17.7657 22.2138 16.3765 21.4555 15.561 20.2045C14.7459 18.9532 14.6136 17.3762 15.2088 16.0064C15.8041 14.6367 17.0475 13.6576 18.5184 13.4003V11.852C18.5184 11.3226 18.8008 10.8335 19.2591 10.569C19.7174 10.3044 20.2823 10.3044 20.7406 10.569C21.1989 10.8335 21.4813 11.3226 21.4813 11.852V13.3335H23.7035C24.233 13.3335 24.722 13.6159 24.9866 14.0742C25.2511 14.5326 25.2511 15.0974 24.9866 15.5557C24.722 16.0141 24.233 16.2965 23.7035 16.2965H19.2591C18.7297 16.2965 18.2406 16.5789 17.9761 17.0372C17.7115 17.4955 17.7115 18.0604 17.9761 18.5187C18.2406 18.977 18.7297 19.2594 19.2591 19.2594H21.4813C23.0693 19.2594 24.5366 20.1067 25.3302 21.4817C26.1242 22.8566 26.1242 24.5511 25.3302 25.9261C24.5366 27.3011 23.0693 28.1483 21.4813 28.1483H21.4813Z" fill="url(#paint0_linear_38_143)"/>
<defs>
<linearGradient id="paint0_linear_38_143" x1="5.58823" y1="35.0478" x2="31.1666" y2="25.912" gradientUnits="userSpaceOnUse">
<stop stop-color="#4050B8"/>
<stop offset="0.988281" stop-color="#C04FB6"/>
</linearGradient>
</defs>
</svg>
