<svg width="40" height="42" viewBox="0 0 40 42" fill="none" xmlns="http://www.w3.org/2000/svg">
<path d="M39.2963 0H0.702718C0.314743 0 0 0.315063 0 0.702718V40.3495C0 40.7375 0.315064 41.0532 0.702718 41.0532H39.2963C39.6843 41.0532 40 40.7375 40 40.3495V0.702718C40 0.315072 39.684 0 39.2963 0ZM38.5926 39.646H1.40581V11.264H38.5926V39.646ZM38.5926 9.85888H1.40581V1.40594H38.5926V9.85888Z" fill="url(#paint0_linear_38_133)"/>
<path d="M32.1326 8.2663H36.3614C36.7494 8.2663 37.0651 7.95123 37.0651 7.56358V3.33382C37.0651 2.94585 36.7494 2.6311 36.3614 2.6311H32.1326C31.7446 2.6311 31.4289 2.94617 31.4289 3.33382V7.56358C31.4289 7.95155 31.7446 8.2663 32.1326 8.2663ZM32.8363 4.03687H35.6577V6.86093H32.8363V4.03687Z" fill="url(#paint1_linear_38_133)"/>
<path d="M24.7271 8.2663H28.9575C29.3455 8.2663 29.6612 7.95123 29.6612 7.56358V3.33382C29.6612 2.94585 29.3455 2.6311 28.9575 2.6311H24.7271C24.3391 2.6311 24.0234 2.94617 24.0234 3.33382V7.56358C24.0234 7.95155 24.3395 8.2663 24.7271 8.2663ZM25.4308 4.03687H28.2539V6.86093H25.4308V4.03687Z" fill="url(#paint2_linear_38_133)"/>
<path d="M17.3225 8.2663H21.5529C21.9415 8.2663 22.2556 7.95123 22.2556 7.56358V3.33382C22.2556 2.94585 21.9415 2.6311 21.5529 2.6311H17.3225C16.9345 2.6311 16.6198 2.94617 16.6198 3.33382V7.56358C16.6198 7.95155 16.9345 8.2663 17.3225 8.2663ZM18.0252 4.03687H20.8501V6.86093H18.0252V4.03687Z" fill="url(#paint3_linear_38_133)"/>
<path d="M25.463 30.6101C25.602 30.7681 25.796 30.8488 25.99 30.8488C26.1564 30.8488 26.3211 30.7903 26.4551 30.6721L32.8463 25.0189C32.9991 24.885 33.0849 24.691 33.0849 24.4887C33.0833 24.286 32.994 24.0939 32.8411 23.96L26.4496 18.4286C26.158 18.1729 25.7115 18.2073 25.4575 18.4999C25.2035 18.7934 25.2363 19.2369 25.5298 19.491L31.3134 24.4974L25.5247 29.6184C25.2331 29.8757 25.2055 30.3202 25.463 30.6101L25.463 30.6101Z" fill="url(#paint4_linear_38_133)"/>
<path d="M14.208 30.6718C14.3419 30.7903 14.5083 30.8484 14.674 30.8484C14.868 30.8484 15.062 30.7678 15.2011 30.6098C15.4577 30.3198 15.431 29.8753 15.1401 29.6177L9.3497 24.4967L15.1342 19.4903C15.4278 19.2363 15.4602 18.7927 15.2055 18.4992C14.9515 18.2066 14.5095 18.1748 14.2144 18.4279L7.82249 23.9593C7.66898 24.0933 7.58066 24.2853 7.57969 24.488C7.57873 24.6906 7.66481 24.8846 7.81672 25.0182L14.208 30.6718Z" fill="url(#paint5_linear_38_133)"/>
<path d="M17.9399 33.2896C17.9897 33.2999 18.0385 33.305 18.0874 33.305C18.4117 33.305 18.7034 33.0786 18.774 32.7472L22.4629 15.417C22.5435 15.0368 22.3017 14.6636 21.9205 14.5829C21.5498 14.5014 21.168 14.7451 21.0873 15.1235L17.3991 32.4552C17.3188 32.8345 17.5606 33.2087 17.9399 33.2893V33.2896Z" fill="url(#paint6_linear_38_133)"/>
<defs>
<linearGradient id="paint0_linear_38_133" x1="5.58823" y1="34.0776" x2="31.0006" y2="24.7427" gradientUnits="userSpaceOnUse">
<stop stop-color="#4050B8"/>
<stop offset="0.988281" stop-color="#C04FB6"/>
</linearGradient>
<linearGradient id="paint1_linear_38_133" x1="32.2163" y1="7.30878" x2="35.7743" y2="5.96714" gradientUnits="userSpaceOnUse">
<stop stop-color="#4050B8"/>
<stop offset="0.988281" stop-color="#C04FB6"/>
</linearGradient>
<linearGradient id="paint2_linear_38_133" x1="24.8111" y1="7.30878" x2="28.3698" y2="5.96649" gradientUnits="userSpaceOnUse">
<stop stop-color="#4050B8"/>
<stop offset="0.988281" stop-color="#C04FB6"/>
</linearGradient>
<linearGradient id="paint3_linear_38_133" x1="17.4071" y1="7.30878" x2="20.9649" y2="5.96729" gradientUnits="userSpaceOnUse">
<stop stop-color="#4050B8"/>
<stop offset="0.988281" stop-color="#C04FB6"/>
</linearGradient>
<linearGradient id="paint4_linear_38_133" x1="26.3759" y1="28.7092" x2="31.7082" y2="27.4641" gradientUnits="userSpaceOnUse">
<stop stop-color="#4050B8"/>
<stop offset="0.988281" stop-color="#C04FB6"/>
</linearGradient>
<linearGradient id="paint5_linear_38_133" x1="8.66906" y1="28.7089" x2="14.0008" y2="27.4641" gradientUnits="userSpaceOnUse">
<stop stop-color="#4050B8"/>
<stop offset="0.988281" stop-color="#C04FB6"/>
</linearGradient>
<linearGradient id="paint6_linear_38_133" x1="18.0955" y1="30.1212" x2="21.7307" y2="29.7485" gradientUnits="userSpaceOnUse">
<stop stop-color="#4050B8"/>
<stop offset="0.988281" stop-color="#C04FB6"/>
</linearGradient>
</defs>
</svg>
