<svg width="40" height="39" viewBox="0 0 40 39" fill="none" xmlns="http://www.w3.org/2000/svg">
<path d="M0.885569 7.9656H7.92395V11.0845C7.92395 11.5061 8.26116 11.8853 8.7248 11.8853H13.9087C14.3303 11.8853 14.7095 11.5481 14.7095 11.0845V0.80085C14.7095 0.379269 14.3723 0 13.9087 0H8.76688C8.34529 0 7.96603 0.337206 7.96603 0.80085V3.91973H0.885644C0.379982 3.91973 0.000427246 4.34131 0.000427246 4.80495V7.03869C0.000427246 7.58638 0.422008 7.9659 0.885644 7.9659L0.885569 7.9656Z" fill="url(#paint0_linear_38_145)"/>
<path d="M39.154 3.91959H17.2802V7.96575H39.1119C39.6175 7.96575 39.9971 7.54417 39.9971 7.08054V4.8468C40.0391 4.29881 39.6176 3.91959 39.154 3.91959H39.154Z" fill="url(#paint1_linear_38_145)"/>
<path d="M39.154 17.2377H31.2727V21.2839H39.1119C39.6175 21.2839 39.9971 20.8623 39.9971 20.3987V18.1649C40.0391 17.617 39.6175 17.2377 39.1539 17.2377H39.154Z" fill="url(#paint2_linear_38_145)"/>
<path d="M0.885586 21.2837H21.9165V24.4026C21.9165 24.8242 22.2537 25.2035 22.7173 25.2035H27.9012C28.3228 25.2035 28.702 24.8663 28.702 24.4026L28.7017 14.119C28.7017 13.6974 28.3645 13.3181 27.9009 13.3181H22.7591C22.3375 13.3181 21.9582 13.6554 21.9582 14.119V17.2379H0.885217C0.379555 17.2379 0 17.6595 0 18.1231V20.3568C0 20.9045 0.421581 21.2837 0.885217 21.2837H0.885586Z" fill="url(#paint3_linear_38_145)"/>
<path d="M39.154 30.5559H17.2802V34.602H39.1119C39.6175 34.602 39.9971 34.1805 39.9971 33.7168V31.4831C40.0391 30.9774 39.6176 30.5559 39.154 30.5559H39.154Z" fill="url(#paint4_linear_38_145)"/>
<path d="M13.9086 26.6363H8.76675C8.34517 26.6363 7.9659 26.9735 7.9659 27.4371V30.556L0.885522 30.5557C0.37986 30.5557 0.000305176 30.9773 0.000305176 31.4409V33.6747C0.000305176 34.1803 0.421886 34.5599 0.885522 34.5599H7.92391V37.6788C7.92391 38.1004 8.26111 38.4796 8.72476 38.4796H13.9086C14.3302 38.4796 14.7095 38.1424 14.7095 37.6788V27.4373C14.7095 26.9737 14.3723 26.6364 13.9086 26.6364L13.9086 26.6363Z" fill="url(#paint5_linear_38_145)"/>
<defs>
<linearGradient id="paint0_linear_38_145" x1="2.05538" y1="9.86581" x2="10.7651" y2="5.80204" gradientUnits="userSpaceOnUse">
<stop stop-color="#4050B8"/>
<stop offset="0.988281" stop-color="#C04FB6"/>
</linearGradient>
<linearGradient id="paint1_linear_38_145" x1="20.4543" y1="7.27824" x2="23.4429" y2="0.951609" gradientUnits="userSpaceOnUse">
<stop stop-color="#4050B8"/>
<stop offset="0.988281" stop-color="#C04FB6"/>
</linearGradient>
<linearGradient id="paint2_linear_38_145" x1="32.492" y1="20.5964" x2="36.2798" y2="17.5162" gradientUnits="userSpaceOnUse">
<stop stop-color="#4050B8"/>
<stop offset="0.988281" stop-color="#C04FB6"/>
</linearGradient>
<linearGradient id="paint3_linear_38_145" x1="4.00984" y1="23.184" x2="15.3254" y2="12.8818" gradientUnits="userSpaceOnUse">
<stop stop-color="#4050B8"/>
<stop offset="0.988281" stop-color="#C04FB6"/>
</linearGradient>
<linearGradient id="paint4_linear_38_145" x1="20.4543" y1="33.9145" x2="23.4429" y2="27.5879" gradientUnits="userSpaceOnUse">
<stop stop-color="#4050B8"/>
<stop offset="0.988281" stop-color="#C04FB6"/>
</linearGradient>
<linearGradient id="paint5_linear_38_145" x1="2.05526" y1="36.4672" x2="10.7539" y2="32.3942" gradientUnits="userSpaceOnUse">
<stop stop-color="#4050B8"/>
<stop offset="0.988281" stop-color="#C04FB6"/>
</linearGradient>
</defs>
</svg>
