<svg width="169" height="170" viewBox="0 0 169 170" fill="none" xmlns="http://www.w3.org/2000/svg">
<path d="M157.326 104.557C156.124 104.308 155.13 103.877 154.345 103.262C153.559 102.647 153.007 101.912 152.688 101.057C152.37 100.202 152.311 99.2889 152.512 98.317C152.713 97.3451 153.129 96.5298 153.76 95.8712C154.391 95.2125 155.189 94.7567 156.154 94.5035C157.119 94.2504 158.203 94.248 159.405 94.4963C160.607 94.7447 161.601 95.1763 162.386 95.7912C163.172 96.4061 163.724 97.141 164.043 97.9958C164.361 98.8507 164.42 99.764 164.219 100.736C164.018 101.708 163.602 102.523 162.971 103.182C162.34 103.84 161.542 104.296 160.577 104.549C159.612 104.803 158.528 104.805 157.326 104.557ZM157.602 103.221C158.589 103.425 159.456 103.432 160.203 103.242C160.949 103.056 161.554 102.719 162.019 102.231C162.483 101.746 162.786 101.159 162.928 100.469C163.071 99.7792 163.026 99.1181 162.793 98.486C162.559 97.8575 162.137 97.308 161.526 96.8376C160.915 96.3709 160.116 96.0356 159.129 95.8318C158.142 95.6279 157.276 95.619 156.529 95.8052C155.782 95.9951 155.177 96.3322 154.713 96.8166C154.249 97.3047 153.945 97.8937 153.803 98.5837C153.66 99.2737 153.706 99.9329 153.94 100.561C154.172 101.194 154.595 101.743 155.206 102.21C155.817 102.68 156.615 103.017 157.602 103.221Z" fill="white"/>
<path d="M159.009 116.921L158.49 118.231L151.328 115.389C150.589 115.096 149.998 114.66 149.555 114.081C149.115 113.506 148.852 112.838 148.768 112.075C148.687 111.313 148.815 110.508 149.151 109.66C149.488 108.811 149.947 108.138 150.528 107.639C151.112 107.141 151.762 106.833 152.478 106.713C153.196 106.599 153.925 106.688 154.664 106.981L161.825 109.823L161.306 111.132L154.25 108.333C153.722 108.123 153.206 108.053 152.702 108.122C152.201 108.192 151.747 108.396 151.341 108.732C150.937 109.072 150.615 109.544 150.377 110.146C150.138 110.748 150.048 111.312 150.109 111.837C150.173 112.364 150.364 112.822 150.682 113.213C151.001 113.609 151.425 113.912 151.953 114.121L159.009 116.921Z" fill="white"/>
<path d="M146.34 116.702L156.293 122.731L154.256 126.094C153.785 126.872 153.266 127.429 152.698 127.767C152.133 128.107 151.548 128.258 150.943 128.219C150.338 128.18 149.742 127.983 149.156 127.628C148.569 127.273 148.122 126.838 147.813 126.323C147.505 125.809 147.371 125.225 147.412 124.572C147.457 123.922 147.712 123.211 148.18 122.44L149.828 119.718L150.917 120.378L149.292 123.06C148.97 123.592 148.789 124.066 148.748 124.485C148.705 124.906 148.782 125.276 148.979 125.594C149.177 125.918 149.475 126.201 149.874 126.442C150.272 126.683 150.666 126.82 151.054 126.851C151.442 126.883 151.817 126.784 152.177 126.555C152.54 126.328 152.885 125.945 153.211 125.408L154.494 123.289L145.61 117.908L146.34 116.702ZM147.974 124.095L142.019 123.837L142.867 122.437L148.798 122.735L147.974 124.095Z" fill="white"/>
<path d="M136.196 131.262L146.608 137.354L145.585 138.355L137.218 133.282L137.137 133.361L141.995 141.868L140.857 142.98L132.459 137.939L132.377 138.018L137.267 146.493L136.244 147.494L130.38 136.952L131.42 135.935L139.74 140.766L139.805 140.703L135.156 132.279L136.196 131.262Z" fill="white"/>
<path d="M121.737 150.264C121.063 149.239 120.666 148.23 120.545 147.24C120.425 146.25 120.554 145.34 120.934 144.51C121.313 143.68 121.918 142.993 122.747 142.448C123.577 141.903 124.447 141.621 125.359 141.602C126.272 141.583 127.158 141.825 128.019 142.329C128.881 142.833 129.648 143.597 130.322 144.623C130.996 145.649 131.393 146.657 131.514 147.647C131.634 148.638 131.505 149.548 131.125 150.377C130.746 151.207 130.141 151.894 129.312 152.439C128.483 152.984 127.612 153.266 126.7 153.285C125.788 153.304 124.901 153.062 124.04 152.558C123.179 152.055 122.411 151.29 121.737 150.264ZM122.877 149.515C123.43 150.357 124.038 150.976 124.7 151.37C125.359 151.766 126.026 151.956 126.699 151.939C127.37 151.925 127.999 151.724 128.588 151.337C129.177 150.951 129.613 150.451 129.895 149.84C130.174 149.23 130.265 148.543 130.166 147.779C130.064 147.016 129.736 146.214 129.183 145.372C128.629 144.53 128.023 143.911 127.364 143.514C126.701 143.12 126.035 142.93 125.365 142.945C124.691 142.961 124.06 143.163 123.471 143.55C122.882 143.937 122.448 144.435 122.169 145.045C121.886 145.656 121.796 146.343 121.898 147.106C121.997 147.87 122.323 148.673 122.877 149.515Z" fill="white"/>
<path d="M116.502 146.46L121.194 157.108L117.596 158.694C116.764 159.06 116.019 159.219 115.36 159.17C114.702 159.125 114.137 158.912 113.663 158.533C113.19 158.154 112.815 157.651 112.538 157.023C112.262 156.396 112.145 155.783 112.188 155.185C112.23 154.587 112.456 154.032 112.864 153.521C113.274 153.013 113.891 152.578 114.716 152.214L117.627 150.931L118.141 152.096L115.271 153.361C114.702 153.611 114.281 153.896 114.008 154.215C113.731 154.536 113.582 154.883 113.56 155.257C113.537 155.635 113.619 156.038 113.807 156.464C113.995 156.891 114.239 157.228 114.539 157.477C114.839 157.725 115.202 157.859 115.628 157.878C116.056 157.901 116.558 157.785 117.134 157.532L119.4 156.533L115.212 147.028L116.502 146.46ZM113.597 153.452L108.869 149.824L110.366 149.164L115.053 152.811L113.597 153.452Z" fill="white"/>
<path d="M106.234 150.771L109.15 162.037L107.785 162.39L106.339 156.801L106.207 156.835L102.593 163.734L100.811 164.195L104.226 157.888L97.8951 152.93L99.5453 152.503L104.817 156.725L105.815 154.777L104.87 151.124L106.234 150.771Z" fill="white"/>
<path d="M65.9345 157.742C66.1599 156.535 66.5724 155.533 67.1722 154.736C67.772 153.938 68.4962 153.372 69.3448 153.038C70.1934 152.703 71.1055 152.627 72.081 152.809C73.0566 152.991 73.8797 153.391 74.5502 154.01C75.2208 154.628 75.6918 155.418 75.9634 156.378C76.2349 157.338 76.258 158.421 76.0326 159.628C75.8073 160.834 75.3948 161.836 74.795 162.633C74.1952 163.431 73.471 163.997 72.6224 164.331C71.7738 164.666 70.8617 164.742 69.8862 164.56C68.9106 164.378 68.0875 163.978 67.417 163.359C66.7464 162.741 66.2753 161.951 66.0038 160.991C65.7323 160.031 65.7092 158.948 65.9345 157.742ZM67.275 157.992C67.09 158.982 67.0996 159.849 67.3037 160.593C67.5041 161.335 67.8527 161.934 68.3496 162.389C68.8427 162.843 69.4356 163.135 70.1282 163.264C70.8207 163.394 71.4808 163.336 72.1085 163.091C72.7324 162.845 73.2736 162.413 73.7323 161.793C74.1872 161.173 74.5072 160.368 74.6922 159.377C74.8772 158.387 74.8695 157.52 74.6691 156.778C74.465 156.034 74.1163 155.436 73.6232 154.981C73.1263 154.526 72.5316 154.234 71.839 154.105C71.1464 153.975 70.4882 154.033 69.8643 154.279C69.2367 154.524 68.6954 154.957 68.2405 155.577C67.7818 156.196 67.46 157.001 67.275 157.992Z" fill="white"/>
<path d="M53.5985 159.656L52.2792 159.161L54.9859 151.948C55.2653 151.203 55.6904 150.604 56.2611 150.151C56.8268 149.699 57.4904 149.425 58.2516 149.326C59.0115 149.231 59.8188 149.343 60.6735 149.664C61.5282 149.985 62.2104 150.431 62.7201 151.002C63.2285 151.578 63.5491 152.222 63.682 152.935C63.81 153.651 63.7342 154.381 63.4548 155.126L60.7481 162.339L59.4289 161.844L62.0956 154.737C62.2952 154.205 62.3558 153.688 62.2774 153.185C62.1977 152.686 61.9861 152.236 61.6426 151.836C61.2942 151.438 60.8168 151.126 60.2104 150.898C59.6039 150.671 59.0387 150.592 58.5147 150.663C57.9893 150.736 57.5342 150.936 57.1493 151.261C56.7595 151.588 56.4649 152.017 56.2652 152.549L53.5985 159.656Z" fill="white"/>
<path d="M53.5968 147.001L47.7522 157.063L44.3524 155.089C43.5662 154.632 42.999 154.123 42.6506 153.561C42.3003 153.003 42.139 152.421 42.1668 151.815C42.1946 151.209 42.3806 150.61 42.725 150.017C43.0694 149.424 43.4959 148.969 44.0046 148.651C44.5134 148.333 45.0944 148.189 45.7478 148.218C46.3992 148.25 47.1147 148.493 47.8942 148.946L50.6456 150.544L50.0063 151.644L47.2943 150.069C46.7571 149.757 46.2791 149.584 45.8602 149.551C45.4381 149.516 45.0696 149.6 44.7548 149.803C44.4348 150.007 44.1578 150.31 43.9238 150.713C43.6898 151.116 43.5606 151.512 43.5362 151.901C43.5119 152.29 43.6175 152.662 43.8532 153.018C44.087 153.377 44.4758 153.715 45.0195 154.03L47.1616 155.275L52.3784 146.294L53.5968 147.001ZM46.2351 148.77L46.3843 142.812L47.7993 143.634L47.6107 149.569L46.2351 148.77Z" fill="white"/>
<path d="M38.8826 137.173L32.9806 147.694L31.9608 146.689L36.8814 138.232L36.8005 138.152L28.3835 143.163L27.2504 142.047L32.1386 133.558L32.0577 133.478L23.6731 138.521L22.6533 137.516L33.0876 131.462L34.1236 132.483L29.4437 140.89L29.5085 140.953L37.8466 136.152L38.8826 137.173Z" fill="white"/>
<path d="M19.6218 123.105C20.6349 122.413 21.6355 121.997 22.6236 121.859C23.6117 121.72 24.5239 121.833 25.3603 122.197C26.1966 122.561 26.8948 123.153 27.4549 123.972C28.015 124.792 28.3129 125.657 28.3488 126.569C28.3846 127.48 28.1586 128.371 27.6707 129.241C27.1828 130.112 26.4323 130.893 25.4192 131.586C24.406 132.279 23.4054 132.694 22.4173 132.833C21.4292 132.971 20.517 132.859 19.6806 132.494C18.8443 132.13 18.1461 131.538 17.586 130.719C17.0259 129.9 16.728 129.034 16.6922 128.123C16.6563 127.211 16.8823 126.32 17.3702 125.45C17.8581 124.579 18.6086 123.798 19.6218 123.105ZM20.3913 124.231C19.5595 124.8 18.9526 125.419 18.5707 126.088C18.1865 126.755 18.0089 127.424 18.0377 128.098C18.0644 128.768 18.2766 129.393 18.6742 129.975C19.0718 130.557 19.579 130.983 20.1957 131.254C20.8103 131.522 21.4989 131.6 22.2614 131.487C23.0217 131.371 23.8178 131.029 24.6496 130.46C25.4814 129.892 26.0893 129.274 26.4735 128.608C26.8555 127.938 27.0331 127.268 27.0064 126.598C26.9776 125.925 26.7643 125.298 26.3667 124.716C25.9691 124.135 25.463 123.71 24.8484 123.442C24.2317 123.17 23.5431 123.093 22.7828 123.209C22.0203 123.322 21.2231 123.663 20.3913 124.231Z" fill="white"/>
<path d="M23.3336 117.867L12.7746 122.757L11.1223 119.189C10.7403 118.364 10.5676 117.622 10.6044 116.962C10.6377 116.304 10.8394 115.735 11.2097 115.254C11.58 114.774 12.0762 114.39 12.6984 114.101C13.3205 113.813 13.9311 113.685 14.5301 113.717C15.1291 113.748 15.6878 113.963 16.2063 114.362C16.7214 114.762 17.1684 115.371 17.5472 116.189L18.8843 119.076L17.7294 119.611L16.4114 116.765C16.1504 116.201 15.8578 115.786 15.5336 115.518C15.2078 115.248 14.8579 115.105 14.4838 115.09C14.1047 115.074 13.7037 115.164 13.281 115.359C12.8582 115.555 12.5253 115.805 12.2823 116.11C12.0393 116.414 11.9122 116.78 11.9011 117.207C11.8866 117.635 12.0115 118.135 12.2757 118.705L13.3167 120.953L22.7415 116.589L23.3336 117.867ZM16.2886 115.094L19.8286 110.299L20.5162 111.783L16.9572 116.537L16.2886 115.094Z" fill="white"/>
<path d="M18.808 107.707L7.60017 110.836L7.2213 109.478L12.7815 107.926L12.7448 107.795L5.77917 104.312L5.2842 102.539L11.6547 105.834L16.4921 99.4104L16.9504 101.052L12.8282 106.403L14.7954 107.364L18.4292 106.35L18.808 107.707Z" fill="white"/>
<path d="M10.9515 67.7332C12.1627 67.9308 13.1738 68.3202 13.9848 68.9015C14.7957 69.4828 15.3783 70.1938 15.7324 71.0345C16.0865 71.8752 16.1837 72.7853 16.0239 73.7648C15.8642 74.7443 15.4828 75.5763 14.8799 76.2609C14.277 76.9455 13.4987 77.4346 12.5451 77.7281C11.5915 78.0216 10.509 78.0695 9.29776 77.8719C8.08649 77.6744 7.07539 77.2849 6.26446 76.7036C5.45352 76.1223 4.87099 75.4113 4.51686 74.5706C4.16273 73.7299 4.06554 72.8198 4.2253 71.8403C4.38507 70.8609 4.76641 70.0288 5.36933 69.3442C5.97225 68.6596 6.75052 68.1706 7.70414 67.8771C8.65777 67.5836 9.74021 67.5356 10.9515 67.7332ZM10.732 69.0791C9.73752 68.9168 8.8711 68.9463 8.13269 69.1675C7.39489 69.3848 6.80424 69.7471 6.36075 70.2543C5.91786 70.7578 5.63971 71.3572 5.52629 72.0525C5.41288 72.7479 5.48584 73.4065 5.74518 74.0283C6.00513 74.6464 6.45004 75.1776 7.07991 75.6219C7.71039 76.0625 8.52284 76.3639 9.51728 76.5261C10.5117 76.6883 11.3778 76.6607 12.1156 76.4433C12.854 76.2222 13.4447 75.8599 13.8876 75.3564C14.3311 74.8492 14.6095 74.248 14.7229 73.5526C14.8364 72.8572 14.7631 72.2005 14.5031 71.5824C14.2438 70.9606 13.7989 70.4294 13.1684 69.9888C12.5385 69.5445 11.7264 69.2413 10.732 69.0791Z" fill="white"/>
<path d="M8.74116 55.4485L9.20632 54.1184L16.479 56.6617C17.2298 56.9243 17.8383 57.3357 18.3045 57.896C18.7684 58.4515 19.0582 59.1086 19.1741 59.8675C19.2863 60.625 19.1918 61.4347 18.8904 62.2964C18.5891 63.1581 18.1585 63.8502 17.5985 64.3726C17.035 64.8939 16.3982 65.2289 15.688 65.3778C14.9755 65.5219 14.2438 65.4627 13.493 65.2001L6.22031 62.6567L6.68547 61.3266L13.8508 63.8325C14.3872 64.02 14.9058 64.069 15.4066 63.9793C15.9039 63.8884 16.3486 63.6667 16.7407 63.3142C17.1305 62.957 17.4323 62.4726 17.6462 61.8612C17.86 61.2498 17.9258 60.6829 17.8436 60.1606C17.7579 59.637 17.5482 59.1865 17.2148 58.8091C16.8789 58.4268 16.4429 58.1419 15.9065 57.9543L8.74116 55.4485Z" fill="white"/>
<path d="M21.3675 55.1647L11.1786 49.5442L13.0777 46.1014C13.5168 45.3054 14.0132 44.7271 14.567 44.3663C15.1174 44.0037 15.6958 43.8296 16.3021 43.844C16.9085 43.8584 17.5118 44.0311 18.1122 44.3623C18.7125 44.6934 19.1771 45.1098 19.5061 45.6114C19.835 46.113 19.9922 46.6907 19.9776 47.3445C19.9597 47.9965 19.733 48.7172 19.2976 49.5066L17.7607 52.2926L16.6463 51.6779L18.1612 48.9316C18.4613 48.3877 18.6232 47.906 18.6469 47.4865C18.6725 47.0637 18.5805 46.6971 18.371 46.3869C18.16 46.0715 17.8505 45.8012 17.4425 45.5762C17.0346 45.3512 16.6359 45.2308 16.2466 45.215C15.8573 45.1993 15.4874 45.3131 15.1368 45.5566C14.7828 45.7983 14.454 46.1944 14.1503 46.745L12.9537 48.9141L22.0481 53.9309L21.3675 55.1647ZM19.4361 47.8439L25.3963 47.8613L24.6059 49.2942L18.6676 49.2369L19.4361 47.8439Z" fill="white"/>
<path d="M30.7927 40.2614L20.1454 34.5901L21.128 33.5487L29.6902 38.2837L29.7682 38.2011L24.5748 29.8954L25.6666 28.7382L34.26 33.4402L34.338 33.3575L29.1135 25.0849L30.0961 24.0434L36.3764 34.3433L35.3782 35.4013L26.8711 30.9058L26.8087 30.9719L31.7909 39.2034L30.7927 40.2614Z" fill="white"/>
<path d="M44.4438 20.6394C45.1585 21.6371 45.596 22.6284 45.7562 23.6132C45.9165 24.598 45.8237 25.5125 45.4779 26.3566C45.132 27.2007 44.5557 27.9118 43.7489 28.4897C42.9421 29.0676 42.0834 29.3845 41.1729 29.4403C40.2624 29.4961 39.3667 29.2897 38.4858 28.821C37.605 28.3524 36.8072 27.6192 36.0925 26.6214C35.3779 25.6237 34.9404 24.6325 34.7801 23.6477C34.6198 22.6628 34.7126 21.7484 35.0585 20.9042C35.4043 20.0601 35.9807 19.3491 36.7875 18.7712C37.5943 18.1932 38.4529 17.8764 39.3635 17.8206C40.274 17.7647 41.1697 17.9712 42.0505 18.4398C42.9314 18.9085 43.7291 19.6417 44.4438 20.6394ZM43.3352 21.4335C42.7485 20.6143 42.1163 20.0212 41.4385 19.654C40.7639 19.2846 40.0904 19.1216 39.4181 19.1653C38.7488 19.2067 38.1278 19.4325 37.5551 19.8428C36.9823 20.2531 36.5671 20.7695 36.3095 21.392C36.0549 22.0123 35.9924 22.7024 36.122 23.4622C36.2547 24.2199 36.6144 25.0083 37.2011 25.8274C37.7878 26.6465 38.4185 27.2408 39.0932 27.6102C39.7709 27.9774 40.4444 28.1403 41.1136 28.0989C41.786 28.0553 42.4085 27.8283 42.9813 27.4181C43.554 27.0078 43.9677 26.4925 44.2223 25.8721C44.4799 25.2496 44.5424 24.5595 44.4097 23.8019C44.2801 23.0421 43.922 22.2526 43.3352 21.4335Z" fill="white"/>
<path d="M49.6349 24.2664L44.5109 13.8189L48.041 12.0876C48.8572 11.6873 49.5956 11.4981 50.2561 11.5201C50.9149 11.5387 51.4886 11.7278 51.9771 12.0872C52.4657 12.4467 52.8609 12.9343 53.1628 13.5498C53.4647 14.1654 53.6065 14.7729 53.5884 15.3725C53.5702 15.972 53.3677 16.5354 52.9808 17.0627C52.5923 17.5866 51.9933 18.047 51.1839 18.444L48.3271 19.8451L47.7667 18.7024L50.5826 17.3213C51.1404 17.0478 51.5493 16.746 51.8093 16.4159C52.0727 16.0842 52.2075 15.7312 52.2138 15.3569C52.2218 14.9775 52.1232 14.5786 51.918 14.1603C51.7129 13.742 51.4554 13.4148 51.1455 13.1786C50.8356 12.9425 50.4672 12.8236 50.0403 12.822C49.6117 12.817 49.1152 12.953 48.5506 13.2299L46.3265 14.3207L50.9001 23.6459L49.6349 24.2664ZM52.2508 17.1613L57.1236 20.5935L55.6545 21.3141L50.8224 17.8618L52.2508 17.1613Z" fill="white"/>
<path d="M59.6615 19.4774L56.2791 8.34348L57.6274 7.93389L59.3053 13.4574L59.4358 13.4177L62.7594 6.37481L64.5208 5.8397L61.3715 12.2834L67.9032 16.9736L66.2723 17.4691L60.8292 13.4695L59.9131 15.458L61.0098 19.0678L59.6615 19.4774Z" fill="white"/>
<path d="M99.8777 10.6834C99.7034 11.8982 99.3334 12.9166 98.7677 13.7385C98.2021 14.5604 97.5024 15.1565 96.6686 15.5267C95.8349 15.8969 94.9268 16.0115 93.9444 15.8705C92.9621 15.7296 92.1229 15.3642 91.4268 14.7746C90.7308 14.1849 90.2269 13.4161 89.9152 12.4683C89.6035 11.5205 89.5348 10.4391 89.7091 9.22431C89.8834 8.00948 90.2534 6.9911 90.8191 6.16917C91.3847 5.34724 92.0844 4.75118 92.9182 4.381C93.7519 4.01082 94.66 3.89621 95.6424 4.03717C96.6247 4.17812 97.4639 4.54344 98.16 5.13313C98.856 5.72281 99.3599 6.49157 99.6716 7.43939C99.9833 8.38721 100.052 9.46854 99.8777 10.6834ZM98.5279 10.4897C98.671 9.49233 98.6249 8.62663 98.3897 7.8926C98.1582 7.1591 97.7846 6.5755 97.269 6.14181C96.7572 5.70866 96.1525 5.44205 95.4551 5.34198C94.7577 5.24192 94.1007 5.32749 93.4839 5.5987C92.8709 5.87045 92.3484 6.32546 91.9162 6.96373C91.4878 7.60254 91.202 8.42063 91.0589 9.41799C90.9158 10.4154 90.96 11.2808 91.1915 12.0143C91.4268 12.7483 91.8003 13.3319 92.3122 13.7651C92.8278 14.1988 93.4343 14.4656 94.1317 14.5657C94.8291 14.6658 95.4843 14.5799 96.0973 14.3082C96.714 14.037 97.2366 13.582 97.665 12.9431C98.0971 12.3049 98.3848 11.4871 98.5279 10.4897Z" fill="white"/>
<path d="M112.237 8.25936L113.576 8.69939L111.17 16.0186C110.921 16.7743 110.521 17.3905 109.97 17.8671C109.423 18.3413 108.772 18.6435 108.015 18.7736C107.26 18.9002 106.449 18.8209 105.581 18.5358C104.714 18.2507 104.014 17.8332 103.481 17.2832C102.95 16.7296 102.603 16.0992 102.44 15.392C102.283 14.6823 102.328 13.9496 102.577 13.194L104.983 5.87471L106.321 6.31473L103.951 13.526C103.773 14.0658 103.734 14.5852 103.833 15.0843C103.934 15.5798 104.164 16.0203 104.523 16.4057C104.888 16.7886 105.378 17.0813 105.993 17.2835C106.608 17.4858 107.176 17.541 107.697 17.4489C108.219 17.3533 108.666 17.1353 109.037 16.7947C109.413 16.4518 109.689 16.0104 109.867 15.4707L112.237 8.25936Z" fill="white"/>
<path d="M112.825 20.9113L118.256 10.6202L121.734 12.4554C122.537 12.8798 123.125 13.3654 123.496 13.9124C123.869 14.456 124.053 15.0311 124.05 15.6376C124.047 16.2441 123.885 16.8506 123.565 17.4569C123.245 18.0632 122.838 18.5355 122.342 18.8737C121.847 19.2118 121.272 19.3796 120.618 19.3771C119.966 19.3713 119.241 19.1579 118.444 18.7372L115.63 17.252L116.224 16.1264L118.998 17.5904C119.547 17.8803 120.032 18.0333 120.452 18.0493C120.875 18.0671 121.24 17.9683 121.546 17.7531C121.857 17.5363 122.122 17.2219 122.339 16.8098C122.557 16.3978 122.67 15.997 122.678 15.6075C122.687 15.2179 122.566 14.8501 122.316 14.5041C122.068 14.1547 121.666 13.8332 121.11 13.5397L118.919 12.3834L114.071 21.569L112.825 20.9113ZM120.109 18.8449L120.201 24.8045L118.754 24.0407L118.702 18.1023L120.109 18.8449Z" fill="white"/>
<path d="M127.938 30.1127L133.414 19.364L134.474 20.3275L129.895 28.9744L129.979 29.0508L138.189 23.7074L139.366 24.778L134.821 33.4555L134.905 33.5319L143.081 28.1579L144.14 29.1214L133.956 35.5878L132.88 34.609L137.22 26.0217L137.153 25.9605L129.014 31.0915L127.938 30.1127Z" fill="white"/>
<path d="M147.803 43.4368C146.818 44.1696 145.835 44.6251 144.853 44.8033C143.872 44.9816 142.956 44.9055 142.105 44.5751C141.255 44.2447 140.534 43.6815 139.941 42.8854C139.349 42.0892 139.016 41.2365 138.944 40.3272C138.871 39.4178 139.061 38.5185 139.514 37.6292C139.966 36.74 140.685 35.9289 141.669 35.1962C142.654 34.4634 143.637 34.0079 144.619 33.8297C145.6 33.6514 146.516 33.7275 147.367 34.0579C148.217 34.3883 148.938 34.9515 149.531 35.7476C150.123 36.5437 150.456 37.3965 150.528 38.3058C150.601 39.2152 150.411 40.1145 149.958 41.0038C149.506 41.893 148.787 42.7041 147.803 43.4368ZM146.989 42.3429C147.797 41.7413 148.378 41.0984 148.733 40.4141C149.09 39.7328 149.241 39.0564 149.185 38.385C149.131 37.7166 148.894 37.0999 148.473 36.5347C148.053 35.9695 147.529 35.5638 146.902 35.3176C146.277 35.0744 145.586 35.0245 144.828 35.1679C144.073 35.3144 143.292 35.6885 142.483 36.2901C141.675 36.8917 141.093 37.5331 140.735 38.2144C140.381 38.8987 140.23 39.575 140.284 40.2434C140.34 40.9148 140.578 41.5331 140.999 42.0983C141.419 42.6635 141.942 43.0677 142.567 43.3109C143.194 43.5571 143.885 43.607 144.64 43.4605C145.398 43.3171 146.18 42.9445 146.989 42.3429Z" fill="white"/>
<path d="M144.271 48.7418L154.622 43.425L156.418 46.9225C156.833 47.7311 157.036 48.4658 157.026 49.1266C157.02 49.7857 156.842 50.3628 156.491 50.8579C156.141 51.353 155.661 51.7571 155.051 52.0704C154.441 52.3837 153.836 52.5368 153.236 52.5297C152.637 52.5227 152.07 52.3307 151.535 51.9536C151.004 51.5748 150.533 50.9845 150.121 50.1826L148.667 47.3523L149.799 46.7708L151.232 49.5606C151.516 50.1132 151.825 50.5164 152.16 50.7703C152.497 51.0275 152.852 51.1558 153.227 51.1551C153.606 51.1561 154.003 51.0501 154.418 50.8372C154.832 50.6243 155.154 50.3608 155.385 50.0466C155.615 49.7324 155.727 49.3618 155.721 48.935C155.718 48.5064 155.573 48.0125 155.285 47.4532L154.153 45.2496L144.915 49.9952L144.271 48.7418ZM151.423 51.2255L148.082 56.1612L147.334 54.7056L150.696 49.8104L151.423 51.2255Z" fill="white"/>
<path d="M149.219 58.6987L160.287 55.1066L160.722 56.4469L155.232 58.2289L155.274 58.3586L162.378 61.5486L162.946 63.2996L156.444 60.2725L151.878 66.8916L151.352 65.2703L155.248 59.7527L153.243 58.8743L149.654 60.0389L149.219 58.6987Z" fill="white"/>
</svg>
