<svg width="112" height="34" viewBox="0 0 112 34" fill="none" xmlns="http://www.w3.org/2000/svg">
<path d="M12.02 33.504C10.2 33.504 8.436 33.224 6.728 32.664C5.048 32.076 3.606 31.138 2.402 29.85C1.198 28.534 0.47 26.84 0.218 24.768H7.064C7.428 25.888 8.058 26.742 8.954 27.33C9.85 27.89 10.844 28.17 11.936 28.17C12.916 28.17 13.714 27.974 14.33 27.582C14.974 27.19 15.296 26.672 15.296 26.028C15.296 25.3 14.904 24.768 14.12 24.432C13.336 24.096 12.09 23.76 10.382 23.424C8.506 23.06 6.952 22.668 5.72 22.248C4.488 21.8 3.424 21.072 2.528 20.064C1.632 19.056 1.184 17.684 1.184 15.948C1.184 13.484 2.094 11.664 3.914 10.488C5.734 9.284 8.016 8.682 10.76 8.682C13.7 8.682 16.136 9.424 18.068 10.908C20.028 12.364 21.232 14.422 21.68 17.082H15.002C14.694 16.018 14.148 15.234 13.364 14.73C12.58 14.226 11.698 13.974 10.718 13.974C9.85 13.974 9.15 14.142 8.618 14.478C8.114 14.814 7.862 15.248 7.862 15.78C7.862 16.508 8.254 17.04 9.038 17.376C9.85 17.684 11.124 17.992 12.86 18.3C14.764 18.636 16.346 19.014 17.606 19.434C18.866 19.854 19.944 20.554 20.84 21.534C21.764 22.514 22.226 23.858 22.226 25.566C22.226 27.134 21.806 28.52 20.966 29.724C20.154 30.928 18.978 31.866 17.438 32.538C15.898 33.182 14.092 33.504 12.02 33.504ZM31.3354 33C29.5994 33 28.2554 32.594 27.3034 31.782C26.3514 30.942 25.8754 29.766 25.8754 28.254V0.954H32.9314V25.818C32.9314 26.798 33.3934 27.288 34.3174 27.288H36.0814V33H31.3354ZM46.4285 33H39.3725V9.186H46.4285V33ZM42.9005 7.548C41.7805 7.548 40.8285 7.226 40.0445 6.582C39.2885 5.91 38.9105 5.028 38.9105 3.936C38.9105 2.844 39.2885 1.962 40.0445 1.29C40.8285 0.617998 41.7805 0.281998 42.9005 0.281998C44.0205 0.281998 44.9585 0.617998 45.7145 1.29C46.4985 1.962 46.8905 2.844 46.8905 3.936C46.8905 5.028 46.4985 5.91 45.7145 6.582C44.9585 7.226 44.0205 7.548 42.9005 7.548ZM62.486 33.504C60.022 33.504 57.852 32.986 55.976 31.95C54.128 30.914 52.686 29.458 51.65 27.582C50.614 25.678 50.096 23.466 50.096 20.946C50.096 18.538 50.6 16.41 51.608 14.562C52.644 12.686 54.1 11.244 55.976 10.236C57.852 9.2 60.022 8.682 62.486 8.682C65.482 8.682 68.016 9.438 70.088 10.95C72.188 12.462 73.546 14.52 74.162 17.124H66.434C66.126 16.144 65.65 15.43 65.006 14.982C64.362 14.506 63.522 14.268 62.486 14.268C60.918 14.268 59.672 14.87 58.748 16.074C57.824 17.25 57.362 18.874 57.362 20.946C57.362 23.102 57.824 24.796 58.748 26.028C59.672 27.26 60.918 27.876 62.486 27.876C63.634 27.876 64.53 27.624 65.174 27.12C65.818 26.588 66.266 25.804 66.518 24.768H74.204C73.616 27.484 72.272 29.626 70.172 31.194C68.072 32.734 65.51 33.504 62.486 33.504ZM89.1061 33.504C86.6421 33.504 84.4581 32.986 82.5541 31.95C80.6781 30.886 79.2221 29.43 78.1861 27.582C77.1781 25.734 76.6741 23.634 76.6741 21.282C76.6741 19.154 77.1081 17.138 77.9761 15.234C78.8721 13.302 80.2301 11.734 82.0501 10.53C83.8981 9.298 86.1801 8.682 88.8961 8.682C91.1081 8.682 93.1381 9.116 94.9861 9.984C96.8621 10.852 98.3601 12.238 99.4801 14.142C100.628 16.046 101.202 18.454 101.202 21.366V22.584H84.0661C84.1501 23.172 84.3041 23.746 84.5281 24.306C84.7521 24.838 85.0041 25.286 85.2841 25.65C86.2361 26.854 87.6361 27.456 89.4841 27.456C90.5201 27.456 91.4021 27.204 92.1301 26.7C92.8861 26.196 93.4181 25.552 93.7261 24.768H100.824C100.096 27.344 98.7521 29.444 96.7921 31.068C94.8321 32.692 92.2701 33.504 89.1061 33.504ZM94.0621 17.586C93.8661 16.718 93.4881 16.004 92.9281 15.444C92.0041 14.52 90.7441 14.058 89.1481 14.058C87.5521 14.058 86.2921 14.52 85.3681 15.444C84.7801 16.032 84.4161 16.746 84.2761 17.586H94.0621ZM107.856 33.504C106.764 33.504 105.812 33.112 105 32.328C104.216 31.544 103.824 30.606 103.824 29.514C103.824 28.45 104.216 27.54 105 26.784C105.812 26 106.764 25.608 107.856 25.608C108.892 25.608 109.788 26 110.544 26.784C111.328 27.54 111.72 28.45 111.72 29.514C111.72 30.606 111.342 31.544 110.586 32.328C109.83 33.112 108.92 33.504 107.856 33.504Z" fill="white"/>
</svg>
