<svg width="99" height="32" viewBox="0 0 99 32" fill="none" xmlns="http://www.w3.org/2000/svg">
<path d="M10.76 31.48C13.2933 31.48 15.3333 30.8533 16.88 29.6C18.4267 28.3467 19.2 26.7067 19.2 24.68C19.2 23.1067 18.72 21.7867 17.76 20.72C16.8 19.6267 15.4133 18.8133 13.6 18.28L10.12 17.24C8.54667 16.7867 7.76 16.1333 7.76 15.28C7.76 14.72 7.97333 14.28 8.4 13.96C8.85333 13.64 9.46667 13.48 10.24 13.48C11.3067 13.48 12.2533 13.76 13.08 14.32C13.9333 14.8533 14.52 15.5733 14.84 16.48L19.28 14.4C18.6133 12.5867 17.4667 11.1867 15.84 10.2C14.24 9.18667 12.3733 8.68 10.24 8.68C8.61333 8.68 7.17333 8.97333 5.92 9.56C4.66667 10.12 3.69333 10.9067 3 11.92C2.30667 12.9333 1.96 14.12 1.96 15.48C1.96 17.0267 2.44 18.3733 3.4 19.52C4.36 20.64 5.73333 21.4533 7.52 21.96L11.24 23C12.68 23.4 13.4 24.04 13.4 24.92C13.4 26.2267 12.52 26.88 10.76 26.88C9.58667 26.88 8.52 26.5467 7.56 25.88C6.6 25.2133 5.84 24.2933 5.28 23.12L0.88 25.2C1.52 27.12 2.72 28.6533 4.48 29.8C6.26667 30.92 8.36 31.48 10.76 31.48ZM22.7859 31H28.7859V0.719999H22.7859V31ZM33.1766 7.2H39.1766V1.2H33.1766V7.2ZM33.1766 31H39.1766V9.16H33.1766V31ZM54.2872 31.48C55.9405 31.48 57.4605 31.2 58.8472 30.64C60.2339 30.0533 61.4205 29.2533 62.4072 28.24C63.3939 27.2267 64.0872 26.08 64.4872 24.8L59.2872 22.52C58.9139 23.6133 58.2872 24.48 57.4072 25.12C56.5272 25.76 55.4872 26.08 54.2872 26.08C52.7139 26.08 51.4205 25.52 50.4072 24.4C49.3939 23.28 48.8872 21.84 48.8872 20.08C48.8872 18.32 49.3939 16.88 50.4072 15.76C51.4205 14.64 52.7139 14.08 54.2872 14.08C55.4605 14.08 56.4872 14.4 57.3672 15.04C58.2739 15.68 58.9139 16.5467 59.2872 17.64L64.4872 15.4C64.0605 14.04 63.3539 12.8667 62.3672 11.88C61.3805 10.8667 60.1939 10.08 58.8072 9.52C57.4205 8.96 55.9139 8.68 54.2872 8.68C52.1005 8.68 50.1272 9.17333 48.3672 10.16C46.6072 11.1467 45.2205 12.5067 44.2072 14.24C43.1939 15.9467 42.6872 17.88 42.6872 20.04C42.6872 22.2 43.1939 24.1467 44.2072 25.88C45.2472 27.6133 46.6339 28.9867 48.3672 30C50.1272 30.9867 52.1005 31.48 54.2872 31.48ZM78.5403 31.48C80.7803 31.48 82.7403 31 84.4203 30.04C86.1003 29.0533 87.2736 27.76 87.9403 26.16L83.1403 23.88C82.7136 24.6267 82.1136 25.2133 81.3403 25.64C80.5936 26.0667 79.687 26.28 78.6203 26.28C77.1536 26.28 75.9536 25.8667 75.0203 25.04C74.087 24.2133 73.5403 23.12 73.3803 21.76H88.6603C88.767 21.4667 88.8336 21.12 88.8603 20.72C88.9136 20.2933 88.9403 19.8667 88.9403 19.44C88.9403 17.4133 88.5136 15.6 87.6603 14C86.8336 12.3733 85.6203 11.08 84.0203 10.12C82.4203 9.16 80.4603 8.68 78.1403 8.68C76.0603 8.68 74.1936 9.17333 72.5403 10.16C70.887 11.1467 69.567 12.4933 68.5803 14.2C67.6203 15.9067 67.1403 17.8533 67.1403 20.04C67.1403 22.1467 67.607 24.0667 68.5403 25.8C69.4736 27.5333 70.7936 28.92 72.5003 29.96C74.207 30.9733 76.2203 31.48 78.5403 31.48ZM78.1403 13.48C79.367 13.48 80.3803 13.84 81.1803 14.56C81.9803 15.28 82.447 16.2133 82.5803 17.36H73.5003C73.7936 16.1067 74.3403 15.1467 75.1403 14.48C75.967 13.8133 76.967 13.48 78.1403 13.48ZM95.3134 31.48C94.2734 31.48 93.3668 31.1067 92.5934 30.36C91.8468 29.6133 91.4734 28.72 91.4734 27.68C91.4734 26.6667 91.8468 25.8 92.5934 25.08C93.3668 24.3333 94.2734 23.96 95.3134 23.96C96.3001 23.96 97.1534 24.3333 97.8734 25.08C98.6201 25.8 98.9934 26.6667 98.9934 27.68C98.9934 28.72 98.6334 29.6133 97.9134 30.36C97.1934 31.1067 96.3268 31.48 95.3134 31.48Z" fill="white"/>
</svg>
