<svg width="171" height="171" viewBox="0 0 171 171" fill="none" xmlns="http://www.w3.org/2000/svg">
<path d="M85.3257 64.1277L87.6864 76.8623L97.0814 67.9473L91.506 79.6374L104.347 77.9473L92.965 84.1277L104.347 90.308L91.506 88.618L97.0814 100.308L87.6864 91.3931L85.3257 104.128L82.965 91.3931L73.57 100.308L79.1453 88.618L66.3046 90.308L77.6864 84.1277L66.3046 77.9473L79.1453 79.6374L73.57 67.9473L82.965 76.8623L85.3257 64.1277Z" fill="white"/>
<path d="M153.234 89.0074L153.13 90.3474L164.678 95.6211L164.781 94.2811L154.681 89.7933L165.352 86.8951L165.455 85.5711L153.234 89.0074Z" fill="white"/>
<path d="M152.316 96.9309L152.076 98.1882L163.785 100.422L164.024 99.1642L152.316 96.9309Z" fill="white"/>
<path d="M151.526 101.277L149.266 108.617L150.413 108.97L152.296 102.853L156.287 104.082L154.498 109.893L155.645 110.246L157.434 104.435L161.395 105.655L159.511 111.771L160.658 112.125L162.918 104.785L151.526 101.277Z" fill="white"/>
<path d="M147.766 112.539L147.131 113.742L154.8 121.082L144.413 118.893L143.778 120.096L152.722 128.688L153.327 127.541L145.663 120.295L155.993 122.49L156.628 121.287L148.966 113.969L159.301 116.221L159.906 115.075L147.766 112.539Z" fill="white"/>
<path d="M138.373 127.914L137.505 128.855L140.914 132.002L139.004 134.071C138.469 134.651 138.116 135.254 137.944 135.88C137.774 136.521 137.78 137.143 137.963 137.748C138.138 138.36 138.492 138.912 139.025 139.404C139.558 139.896 140.137 140.205 140.761 140.331C141.385 140.472 142.006 140.428 142.624 140.199C143.249 139.978 143.826 139.581 144.354 139.009L147.132 136L138.373 127.914ZM141.796 132.816L145.382 136.126L143.429 138.242C142.908 138.807 142.327 139.113 141.688 139.161C141.056 139.217 140.462 138.988 139.905 138.474C139.349 137.96 139.069 137.383 139.066 136.741C139.063 136.1 139.322 135.497 139.843 134.932L141.796 132.816Z" fill="white"/>
<path d="M130.861 135.837L129.854 136.628L132.718 140.278L130.427 142.076L125.499 140.045L124.315 140.974L129.499 143.069C129.054 143.729 128.844 144.43 128.869 145.17C128.885 145.916 129.154 146.621 129.674 147.284C130.122 147.854 130.644 148.252 131.24 148.475C131.834 148.714 132.454 148.77 133.1 148.643C133.752 148.524 134.385 148.224 134.997 147.743L138.22 145.215L130.861 135.837ZM133.459 141.222L136.472 145.061L134.206 146.839C133.602 147.313 132.98 147.523 132.341 147.469C131.708 147.423 131.158 147.102 130.691 146.506C130.223 145.91 130.039 145.295 130.138 144.662C130.238 144.028 130.589 143.474 131.193 143L133.459 141.222Z" fill="white"/>
<path d="M117.319 144.932C116.583 145.32 115.969 145.813 115.476 146.411C114.979 147.023 114.617 147.697 114.39 148.432C114.167 149.176 114.094 149.951 114.169 150.756C114.249 151.57 114.498 152.373 114.916 153.165C115.334 153.958 115.854 154.612 116.476 155.128C117.099 155.644 117.777 156.016 118.512 156.243C119.252 156.479 120.013 156.56 120.793 156.486C121.57 156.426 122.326 156.202 123.062 155.814C123.798 155.425 124.416 154.93 124.919 154.327C125.411 153.729 125.769 153.058 125.991 152.314C126.218 151.579 126.292 150.804 126.212 149.99C126.137 149.185 125.89 148.387 125.472 147.594C125.054 146.802 124.531 146.143 123.904 145.618C123.282 145.102 122.601 144.725 121.861 144.489C121.126 144.261 120.37 144.178 119.594 144.238C118.813 144.312 118.055 144.544 117.319 144.932ZM117.879 145.993C118.69 145.565 119.512 145.385 120.343 145.452C121.175 145.52 121.944 145.789 122.651 146.261C123.354 146.746 123.917 147.39 124.34 148.192C124.654 148.786 124.851 149.4 124.932 150.032C125.003 150.67 124.962 151.289 124.808 151.889C124.654 152.489 124.387 153.034 124.006 153.524C123.616 154.019 123.115 154.429 122.502 154.752C121.888 155.076 121.272 155.256 120.653 155.294C120.024 155.336 119.418 155.252 118.836 155.04C118.254 154.829 117.725 154.511 117.248 154.088C116.762 153.669 116.362 153.162 116.048 152.568C115.625 151.766 115.416 150.936 115.421 150.077C115.421 149.232 115.628 148.448 116.042 147.723C116.455 146.998 117.068 146.421 117.879 145.993Z" fill="white"/>
<path d="M110.322 148.435L109.719 148.649C108.794 148.976 108.158 149.513 107.811 150.258C107.467 151.013 107.462 151.863 107.797 152.809L110.68 160.953L111.886 160.526L109.004 152.382C108.797 151.798 108.794 151.279 108.995 150.823C109.199 150.377 109.583 150.055 110.146 149.855L110.75 149.642L110.322 148.435Z" fill="white"/>
<path d="M104.004 150.65L96.5074 152.319L96.7681 153.49L103.015 152.099L103.923 156.176L97.9878 157.497L98.2485 158.668L104.183 157.347L105.084 161.392L98.8365 162.782L99.0972 163.954L106.594 162.285L104.004 150.65Z" fill="white"/>
<path d="M88.9158 152.842C88.1064 152.885 87.3899 153.068 86.7663 153.39C86.1322 153.713 85.6088 154.11 85.1963 154.581C84.7738 155.063 84.4798 155.554 84.3146 156.055L85.5414 156.517C85.8022 155.809 86.2302 155.23 86.8255 154.781C87.4102 154.333 88.1285 154.086 88.9806 154.04C89.854 153.993 90.6425 154.153 91.3461 154.521C92.0502 154.899 92.6141 155.451 93.0379 156.176C93.4616 156.901 93.7 157.753 93.753 158.733C93.8066 159.723 93.6615 160.597 93.3178 161.352C92.9747 162.119 92.4735 162.728 91.8143 163.18C91.1551 163.632 90.3888 163.882 89.5154 163.929C88.6633 163.975 87.9222 163.802 87.292 163.409C86.6518 163.027 86.1639 162.498 85.8282 161.821L84.6585 162.413C84.8772 162.904 85.2224 163.36 85.6939 163.783C86.1554 164.218 86.7188 164.561 87.384 164.814C88.0387 165.067 88.7707 165.171 89.5802 165.128C90.4216 165.082 91.1855 164.886 91.8718 164.539C92.5586 164.203 93.148 163.744 93.64 163.161C94.1213 162.58 94.4855 161.909 94.7328 161.148C94.9801 160.386 95.0795 159.558 95.0311 158.664C94.9828 157.769 94.7946 156.957 94.4667 156.227C94.1388 155.497 93.7043 154.869 93.1631 154.342C92.6118 153.827 91.9763 153.434 91.2566 153.164C90.5375 152.903 89.7573 152.796 88.9158 152.842Z" fill="white"/>
<path d="M79.1223 152.855L77.8492 152.722L76.7353 163.384L73.489 163.045L73.3643 164.238L81.1619 165.053L81.2866 163.859L78.0084 163.517L79.1223 152.855Z" fill="white"/>
<path d="M45.5715 140.315L44.4963 139.509L33.85 146.424L34.9252 147.23L44.1315 141.115L40.8516 151.675L41.914 152.472L45.5715 140.315Z" fill="white"/>
<path d="M39.3337 135.221L38.4026 134.343L30.2225 143.013L31.1535 143.892L39.3337 135.221Z" fill="white"/>
<path d="M36.1758 132.293L31.1963 126.446L30.2827 127.224L34.4323 132.097L31.2529 134.804L27.3109 130.175L26.3973 130.953L30.3393 135.582L27.1844 138.269L23.0349 133.397L22.1213 134.175L27.1007 140.022L36.1758 132.293Z" fill="white"/>
<path d="M28.7336 123.139L28.0549 121.961L17.7557 124.532L25.1482 116.914L24.4695 115.735L12.4313 118.717L13.0781 119.84L23.2957 117.224L15.9288 124.79L16.6076 125.969L26.8848 123.392L19.4663 130.932L20.1131 132.055L28.7336 123.139Z" fill="white"/>
<path d="M20.7884 107.087L20.4583 105.851L15.9752 107.047L15.249 104.327C15.0454 103.564 14.7251 102.943 14.288 102.463C13.8378 101.976 13.3087 101.648 12.7005 101.48C12.0897 101.3 11.4338 101.304 10.733 101.491C10.0322 101.678 9.46168 102.002 9.02136 102.462C8.56798 102.914 8.27266 103.462 8.13539 104.106C7.98782 104.752 8.01444 105.452 8.21526 106.204L9.2716 110.162L20.7884 107.087ZM14.8158 107.357L10.1009 108.615L9.35816 105.833C9.1601 105.091 9.21182 104.437 9.51332 103.87C9.80451 103.307 10.316 102.928 11.0477 102.732C11.7794 102.537 12.417 102.61 12.9606 102.95C13.5042 103.291 13.875 103.832 14.0731 104.574L14.8158 107.357Z" fill="white"/>
<path d="M18.1292 96.5667L18.0011 95.2931L13.3844 95.7575L13.093 92.8601L17.4471 89.7849L17.2966 88.2884L12.7515 91.5436C12.4316 90.8147 11.9526 90.2625 11.3145 89.8871C10.6753 89.5012 9.93654 89.3504 9.09811 89.4347C8.37642 89.5073 7.76148 89.7353 7.25331 90.1187C6.73345 90.4927 6.35429 90.9864 6.11584 91.6C5.86677 92.2147 5.7812 92.9094 5.85913 93.6842L6.26905 97.7596L18.1292 96.5667ZM12.1904 95.8776L7.33493 96.3659L7.0467 93.5004C6.96984 92.7363 7.12549 92.0988 7.51366 91.5881C7.89122 91.0784 8.45676 90.7857 9.21029 90.7099C9.96382 90.6341 10.5816 90.8078 11.0637 91.231C11.5459 91.6542 11.8253 92.2479 11.9022 93.012L12.1904 95.8776Z" fill="white"/>
<path d="M17.7039 80.0551C17.7713 79.2258 17.685 78.4429 17.4451 77.7064C17.1955 76.9584 16.8216 76.2913 16.3234 75.7051C15.8145 75.118 15.2005 74.6401 14.4813 74.2714C13.7515 73.9018 12.9401 73.6807 12.047 73.6082C11.1539 73.5357 10.3228 73.6234 9.55355 73.8713C8.7843 74.1193 8.10656 74.4923 7.52033 74.9905C6.92346 75.4878 6.44685 76.0859 6.09047 76.7847C5.72433 77.472 5.5076 78.2303 5.44028 79.0596C5.37297 79.8888 5.45881 80.677 5.69781 81.4241C5.93767 82.1606 6.31202 82.8224 6.82086 83.4095C7.31906 83.9957 7.93307 84.4737 8.66289 84.8433C9.38208 85.212 10.1882 85.4326 11.0813 85.5051C11.9743 85.5776 12.8108 85.4903 13.5907 85.2433C14.3599 84.9954 15.043 84.6227 15.6398 84.1254C16.2261 83.6272 16.7023 83.0345 17.0684 82.3472C17.4248 81.6484 17.6366 80.8843 17.7039 80.0551ZM16.5079 79.958C16.4337 80.8723 16.1448 81.6622 15.6413 82.3276C15.1378 82.9931 14.4976 83.4976 13.7206 83.8412C12.9338 84.1733 12.0885 84.3027 11.1848 84.2293C10.515 84.1749 9.89151 84.0119 9.31426 83.7403C8.73788 83.4581 8.23793 83.0911 7.81442 82.6394C7.39092 82.1876 7.07446 81.6697 6.86504 81.0855C6.65648 80.4906 6.58025 79.8477 6.63635 79.1566C6.69245 78.4656 6.87095 77.8487 7.17185 77.3059C7.47361 76.7525 7.86991 76.287 8.36073 75.9095C8.85155 75.532 9.40371 75.2558 10.0172 75.0808C10.6316 74.8953 11.2736 74.8297 11.9434 74.884C12.8471 74.9574 13.66 75.2267 14.3821 75.692C15.0944 76.1458 15.6453 76.7416 16.0349 77.4796C16.4244 78.2175 16.5821 79.0436 16.5079 79.958Z" fill="white"/>
<path d="M18.5197 72.0998L18.6659 71.4767C18.89 70.5213 18.7823 69.6963 18.3427 69.0015C17.8927 68.3043 17.1796 67.8412 16.2035 67.6122L7.79184 65.6388L7.49949 66.8849L15.9111 68.8583C16.5134 68.9996 16.9521 69.2779 17.2273 69.693C17.492 70.1057 17.5561 70.6028 17.4197 71.1844L17.2735 71.8075L18.5197 72.0998Z" fill="white"/>
<path d="M20.0437 65.5851L22.6877 58.3745L21.561 57.9614L19.3577 63.9702L15.437 62.5325L17.5301 56.8242L16.4035 56.4111L14.3103 62.1194L10.4196 60.6928L12.623 54.684L11.4963 54.2709L8.85234 61.4814L20.0437 65.5851Z" fill="white"/>
<path d="M26.3007 51.7259C26.7027 51.022 26.9374 50.3207 27.0046 49.6221C27.0772 48.9143 27.0274 48.2594 26.8552 47.6574C26.6791 47.0409 26.4256 46.5277 26.0947 46.1176L25.0411 46.8979C25.4951 47.5011 25.7493 48.1744 25.8038 48.9179C25.8635 49.6522 25.6818 50.3898 25.2587 51.1309C24.8249 51.8904 24.2628 52.4661 23.5723 52.8579C22.8725 53.2445 22.1032 53.4193 21.2644 53.3825C20.4256 53.3457 19.5801 53.084 18.7279 52.5974C17.8665 52.1055 17.2114 51.5103 16.7627 50.8119C16.3047 50.1082 16.0644 49.3568 16.0416 48.5576C16.0189 47.7585 16.2244 46.9792 16.6581 46.2197C17.0813 45.4786 17.6289 44.9499 18.3009 44.6335C18.9689 44.3026 19.678 44.1793 20.4282 44.2638L20.5648 42.9599C20.0342 42.878 19.4633 42.9205 18.8521 43.0874C18.237 43.2397 17.643 43.527 17.0703 43.9492C16.5028 44.3622 16.0181 44.9206 15.6161 45.6246C15.1982 46.3564 14.949 47.1046 14.8686 47.8694C14.7788 48.6288 14.8452 49.373 15.0677 50.1019C15.2955 50.8216 15.6621 51.4916 16.1677 52.1119C16.6733 52.7323 17.3151 53.2646 18.0932 53.7089C18.8713 54.1533 19.6559 54.4355 20.4471 54.5557C21.2384 54.6758 22.0017 54.6511 22.7373 54.4816C23.4689 54.2974 24.1435 53.9764 24.7613 53.5184C25.3697 53.0552 25.8829 52.4577 26.3007 51.7259Z" fill="white"/>
<path d="M31.4557 43.6129L32.2532 42.6117L23.8684 35.9324L25.9021 33.3794L24.9635 32.6317L20.0787 38.7639L21.0173 39.5116L23.0709 36.9335L31.4557 43.6129Z" fill="white"/>
<path d="M55.8849 23.7938L57.1087 23.2381L56.1574 10.5787L54.9337 11.1343L55.875 22.1465L48.1885 14.1972L46.9794 14.7463L55.8849 23.7938Z" fill="white"/>
<path d="M63.1246 20.8198L64.3421 20.4247L60.6625 9.08686L59.445 9.48198L63.1246 20.8198Z" fill="white"/>
<path d="M66.9856 19.4821L74.5008 17.8994L74.2535 16.7252L67.9909 18.0441L67.1303 13.9578L73.0798 12.7048L72.8325 11.5305L66.883 12.7835L66.029 8.72846L72.2916 7.40954L72.0443 6.2353L64.5292 7.818L66.9856 19.4821Z" fill="white"/>
<path d="M78.9982 17.2362L80.358 17.21L83.0724 6.94766L86.1809 17.0976L87.5406 17.0713L90.7339 5.08745L89.4382 5.11246L86.8028 15.3252L83.7272 5.2227L82.3675 5.24894L79.6687 15.4949L76.6406 5.35948L75.3448 5.38449L78.9982 17.2362Z" fill="white"/>
<path d="M97.0182 17.954L98.2609 18.2606L99.3722 13.7556L102.106 14.4301C102.873 14.6191 103.571 14.6376 104.202 14.4856C104.846 14.3258 105.388 14.0201 105.829 13.5686C106.28 13.1196 106.593 12.543 106.766 11.8388C106.94 11.1345 106.932 10.4788 106.741 9.87139C106.563 9.25622 106.225 8.7334 105.727 8.30292C105.232 7.86208 104.606 7.54842 103.85 7.36193L99.873 6.38094L97.0182 17.954ZM99.6596 12.5906L100.828 7.85258L103.625 8.54233C104.37 8.72627 104.918 9.08674 105.269 9.62375C105.623 10.1504 105.709 10.7814 105.528 11.5167C105.346 12.252 104.975 12.7757 104.415 13.0879C103.854 13.4001 103.201 13.4642 102.456 13.2803L99.6596 12.5906Z" fill="white"/>
<path d="M107.678 20.7083L108.855 21.2113L110.679 16.9446L113.357 18.089L113.946 23.3869L115.329 23.9779L114.674 18.4259C115.467 18.4979 116.182 18.3452 116.819 17.9678C117.465 17.5946 117.954 17.0206 118.286 16.2457C118.571 15.5787 118.668 14.9302 118.578 14.3C118.501 13.6642 118.252 13.0937 117.83 12.5885C117.412 12.0735 116.845 11.663 116.129 11.357L112.363 9.74731L107.678 20.7083ZM111.15 15.8412L113.068 11.3538L115.717 12.4856C116.423 12.7874 116.906 13.2316 117.165 13.8182C117.429 14.395 117.412 15.0316 117.115 15.728C116.817 16.4244 116.367 16.8814 115.763 17.0991C115.16 17.3168 114.505 17.2748 113.799 16.973L111.15 15.8412Z" fill="white"/>
<path d="M122.254 28.2424C122.947 28.7018 123.675 29.0043 124.435 29.15C125.211 29.2926 125.976 29.2873 126.73 29.1342C127.489 28.9721 128.204 28.6653 128.875 28.2136C129.551 27.753 130.136 27.1492 130.631 26.4022C131.126 25.6552 131.45 24.885 131.605 24.0917C131.759 23.2984 131.76 22.5247 131.607 21.7708C131.459 21.008 131.166 20.3018 130.726 19.6523C130.301 18.9997 129.742 18.4438 129.048 17.9843C128.354 17.5249 127.623 17.2194 126.853 17.0679C126.092 16.9223 125.332 16.9305 124.572 17.0925C123.818 17.2457 123.103 17.5525 122.427 18.0131C121.757 18.4648 121.174 19.0642 120.68 19.8112C120.185 20.5582 119.857 21.3328 119.697 22.135C119.543 22.9283 119.539 23.7064 119.686 24.4692C119.84 25.2232 120.129 25.9264 120.554 26.5789C120.993 27.2285 121.56 27.7829 122.254 28.2424ZM122.916 27.2419C122.152 26.7354 121.599 26.101 121.26 25.3387C120.92 24.5765 120.788 23.7722 120.862 22.9258C120.951 22.0765 121.246 21.2739 121.747 20.518C122.118 19.9577 122.562 19.4904 123.078 19.1161C123.604 18.7477 124.167 18.4872 124.767 18.3345C125.367 18.1818 125.973 18.1548 126.586 18.2536C127.208 18.3582 127.807 18.6019 128.385 18.9848C128.963 19.3676 129.417 19.8219 129.747 20.3475C130.086 20.879 130.302 21.4508 130.396 22.0629C130.49 22.675 130.465 23.2919 130.322 23.9136C130.187 24.5412 129.935 25.1351 129.564 25.6954C129.063 26.4513 128.435 27.033 127.679 27.4406C126.937 27.8452 126.149 28.0398 125.315 28.0246C124.481 28.0093 123.681 27.7485 122.916 27.2419Z" fill="white"/>
<path d="M128.69 32.6748L129.167 33.102C129.897 33.7571 130.673 34.0584 131.493 34.0061C132.321 33.9458 133.069 33.5424 133.739 32.7959L139.506 26.3627L138.553 25.5082L132.786 31.9414C132.373 32.4021 131.918 32.6535 131.422 32.6957C130.933 32.7299 130.466 32.5477 130.021 32.1489L129.544 31.7217L128.69 32.6748Z" fill="white"/>
<path d="M133.748 37.2058L138.812 42.9798L139.714 42.1886L135.494 37.3769L138.633 34.6234L142.642 39.1944L143.544 38.4032L139.536 33.8321L142.651 31.0997L146.871 35.9114L147.773 35.1201L142.709 29.3461L133.748 37.2058Z" fill="white"/>
<path d="M142.847 49.1987C143.275 49.8874 143.78 50.4277 144.362 50.8195C144.95 51.2203 145.549 51.4884 146.161 51.6236C146.787 51.7622 147.359 51.7837 147.877 51.688L147.692 50.39C146.946 50.502 146.233 50.4049 145.553 50.0988C144.879 49.8017 144.317 49.2907 143.866 48.5657C143.405 47.8226 143.166 47.0542 143.151 46.2604C143.144 45.461 143.357 44.7013 143.788 43.9812C144.22 43.2611 144.853 42.6422 145.687 42.1246C146.529 41.6013 147.365 41.3087 148.193 41.2467C149.029 41.179 149.805 41.3255 150.518 41.686C151.232 42.0465 151.819 42.5983 152.28 43.3414C152.731 44.0664 152.935 44.7996 152.893 45.5412C152.866 46.2863 152.637 46.9685 152.205 47.588L153.287 48.3289C153.611 47.9014 153.846 47.3791 153.99 46.7622C154.149 46.1487 154.179 45.4896 154.081 44.7849C153.988 44.0893 153.728 43.3971 153.3 42.7084C152.855 41.9925 152.316 41.4171 151.682 40.9822C151.057 40.5417 150.371 40.2457 149.624 40.0942C148.883 39.9518 148.119 39.9552 147.333 40.1044C146.546 40.2536 145.773 40.5645 145.011 41.0371C144.25 41.5098 143.628 42.0653 143.146 42.7039C142.664 43.3424 142.322 44.0255 142.121 44.753C141.934 45.484 141.895 46.2301 142.004 46.9914C142.121 47.747 142.402 48.4828 142.847 49.1987Z" fill="white"/>
<path d="M147.576 57.6902L148.074 58.8691L157.948 54.6931L159.219 57.6993L160.324 57.2318L157.27 50.0111L156.165 50.4786L157.449 53.5142L147.576 57.6902Z" fill="white"/>
</svg>
